<svg xmlns="http://www.w3.org/2000/svg" width="135.906" height="146.197" viewBox="0 0 135.906 146.197">
  <g id="Grupo_417" data-name="Grupo 417" transform="translate(0 11)">
    <path id="Trazado_1642" data-name="Trazado 1642" d="M954.649,370.816a5.534,5.534,0,0,0-5.517-5.946H856.246a5.534,5.534,0,0,0-5.517,5.946c1.159,15.58,9.612,29.424,21.723,38.287l-19.2,43.029a5.664,5.664,0,0,0,10.412,4.46l8.746-19.606a103.153,103.153,0,0,0,23.481,3.611v16.012a5.663,5.663,0,0,0,11.326,0v-16.02a102.993,102.993,0,0,0,23.473-3.625l8.737,19.595A5.658,5.658,0,0,0,944.655,460a5.6,5.6,0,0,0,2.2-.446,5.678,5.678,0,0,0,2.984-7.461l-18.636-41.77C944.24,401.546,953.434,387.125,954.649,370.816Zm-80.377,62,8.03-18a50.9,50.9,0,0,0,13.591,3.889v17.36A99.4,99.4,0,0,1,874.272,432.815Zm54.555-.025a99.038,99.038,0,0,1-21.609,3.263V419a50.334,50.334,0,0,0,13.959-3.368Z" transform="translate(-834.734 -327.073)" fill="#cc5e12"/>
    <path id="Trazado_1643" data-name="Trazado 1643" d="M856.093,373.164a2.266,2.266,0,1,0,3.2-3.2,3.1,3.1,0,0,1,.117-4.374,7.274,7.274,0,0,0,2.29-5.06,7.018,7.018,0,0,0-2.179-5.079,2.264,2.264,0,0,0-3.2,3.2,2.6,2.6,0,0,1,.853,1.808,2.878,2.878,0,0,1-.964,1.928A7.633,7.633,0,0,0,856.093,373.164Z" transform="translate(-829.001 -355.379)" fill="#cc5e12"/>
    <path id="Trazado_1644" data-name="Trazado 1644" d="M885.005,373.164a2.265,2.265,0,1,0,3.2-3.2,3.1,3.1,0,0,1,.12-4.374,7.275,7.275,0,0,0,2.29-5.06,7.021,7.021,0,0,0-2.182-5.079,2.264,2.264,0,1,0-3.2,3.2,2.6,2.6,0,0,1,.853,1.808,2.872,2.872,0,0,1-.961,1.928A7.631,7.631,0,0,0,885.005,373.164Z" transform="translate(-777.361 -355.379)" fill="#cc5e12"/>
    <path id="Trazado_1645" data-name="Trazado 1645" d="M863.2,377.111a2.266,2.266,0,0,0,3.2-3.2,5.377,5.377,0,0,1,.17-7.59,9.415,9.415,0,0,0,2.979-6.536,8.95,8.95,0,0,0-2.822-6.545,2.264,2.264,0,1,0-3.2,3.2,4.55,4.55,0,0,1,1.493,3.268,5.016,5.016,0,0,1-1.649,3.407A9.915,9.915,0,0,0,863.2,377.111Z" transform="translate(-817.452 -359.326)" fill="#cc5e12"/>
    <path id="Trazado_1646" data-name="Trazado 1646" d="M877.871,377.113a2.265,2.265,0,0,0,3.2-3.2,5.382,5.382,0,0,1,.17-7.589,9.414,9.414,0,0,0,2.981-6.539,8.97,8.97,0,0,0-2.822-6.544,2.266,2.266,0,0,0-3.2,3.2,4.552,4.552,0,0,1,1.5,3.265,5.043,5.043,0,0,1-1.652,3.41A9.914,9.914,0,0,0,877.871,377.113Z" transform="translate(-791.245 -359.328)" fill="#cc5e12"/>
    <path id="Trazado_1647" data-name="Trazado 1647" d="M870.439,379.833a2.266,2.266,0,1,0,3.2-3.2,6.928,6.928,0,0,1,0-9.8c4.449-4.452,4.449-10.665,0-15.115a2.266,2.266,0,1,0-3.2,3.2c2.725,2.725,2.725,5.979,0,8.707A11.475,11.475,0,0,0,870.439,379.833Z" transform="translate(-805.489 -362.049)" fill="#cc5e12"/>
    <path id="Trazado_1648" data-name="Trazado 1648" d="M972.958,360.4a7.913,7.913,0,0,0-7.559,5.661H860.466a7.929,7.929,0,1,0,0,4.53H965.4a7.911,7.911,0,1,0,7.559-10.192Z" transform="translate(-844.978 -338.457)" fill="#cc5e12"/>
  </g>
</svg>
