<svg xmlns="http://www.w3.org/2000/svg" width="95.093" height="138.681" viewBox="0 0 95.093 138.681">
  <g id="Grupo_371" data-name="Grupo 371" transform="translate(95.093) rotate(90)">
    <g id="Grupo_370" data-name="Grupo 370">
      <path id="Trazado_1619" data-name="Trazado 1619" d="M754.964,253.229a13.018,13.018,0,0,0-8.424-12.166v24.328A13.014,13.014,0,0,0,754.964,253.229Z" transform="translate(-672.627 -205.682)" fill="#cc5e12"/>
      <rect id="Rect치ngulo_68" data-name="Rect치ngulo 68" width="16.763" height="32.917" transform="translate(0.001 31.087)" fill="#cc5e12"/>
      <path id="Trazado_1620" data-name="Trazado 1620" d="M740.383,253.229a13.014,13.014,0,0,0,8.424,12.163V241.063A13.018,13.018,0,0,0,740.383,253.229Z" transform="translate(-684.039 -205.682)" fill="#cc5e12"/>
      <path id="Trazado_1621" data-name="Trazado 1621" d="M746.539,228.665v25.883a22.139,22.139,0,0,1,0,43.326v25.883h64.769V301.812H785.4v-51.2h25.907V228.665Z" transform="translate(-672.627 -228.665)" fill="#cc5e12"/>
      <path id="Trazado_1622" data-name="Trazado 1622" d="M720.639,250.608h25.909v51.2H720.639v21.945h64.769V297.874a22.14,22.14,0,0,1,0-43.326V228.665H720.639Z" transform="translate(-720.639 -228.665)" fill="#cc5e12"/>
      <rect id="Rect치ngulo_69" data-name="Rect치ngulo 69" width="16.763" height="32.917" transform="translate(121.918 31.087)" fill="#cc5e12"/>
    </g>
  </g>
</svg>
