<svg id="Grupo_421" data-name="Grupo 421" xmlns="http://www.w3.org/2000/svg" xmlns:xlink="http://www.w3.org/1999/xlink" width="139" height="139.012" viewBox="0 0 139 139.012">
  <defs>
    <clipPath id="clip-path">
      <rect id="Rectángulo_71" data-name="Rectángulo 71" width="139" height="139.012" fill="#cc5e12"/>
    </clipPath>
  </defs>
  <g id="Grupo_420" data-name="Grupo 420" clip-path="url(#clip-path)">
    <path id="Trazado_1659" data-name="Trazado 1659" d="M243.936,27.422c-.344,1.538-.591,3.1-1.047,4.608a24.3,24.3,0,0,1-13.841,15.786C212.559,55.2,197.941,65.4,184.4,77.254a9.114,9.114,0,0,1-3.319,1.911,3.726,3.726,0,0,1-3.643-1.342c-3.733-3.75-7.488-7.48-11.22-11.232-2.043-2.054-2.074-4.3-.134-6.475a200.029,200.029,0,0,0,25.464-35.7c1.6-2.872,2.96-5.889,4.316-8.891C199.755,6.913,206.274,1.751,215.637.237A3.071,3.071,0,0,0,216.243,0h5.43a5.155,5.155,0,0,0,.744.248q15.591,2.763,20.5,17.814c.47,1.449.688,2.979,1.023,4.471Z" transform="translate(-104.936 -0.001)" fill="#cc5e12"/>
    <path id="Trazado_1660" data-name="Trazado 1660" d="M97.187,100.356c-2.478,2.9-4.805,5.728-7.249,8.453-5.029,5.607-4.9,12.731.429,18.091q5.453,5.488,10.94,10.94c5.391,5.359,12.694,5.432,18.325.276,2.631-2.408,5.376-4.692,8.252-7.192,1.949,2.787,3.847,5.358,5.594,8.029,3.722,5.689,7.054,11.582,8.763,18.241a18.26,18.26,0,0,1,.484,8.055,9.9,9.9,0,0,1-9.521,8.315,26.992,26.992,0,0,1-11.86-2.375,86.7,86.7,0,0,1-20.5-12.333c-14.752-11.466-27.62-24.719-37.779-40.473-3.539-5.487-6.652-11.227-7.9-17.719a20.676,20.676,0,0,1-.21-6.981c.793-5.02,4.636-8.129,9.717-8.369a25.283,25.283,0,0,1,10.064,1.842c8.182,3.043,15.324,7.853,22.45,13.2" transform="translate(-34.891 -54.357)" fill="#cc5e12"/>
    <path id="Trazado_1661" data-name="Trazado 1661" d="M20.876,187.789l4.515,6.712c-13.929,7.943-20.081,19.628-15.646,35.374,3.156,11.207,11.261,18.16,22.764,19.971,14.327,2.256,24.754-3.947,31.635-16.575l6.7,4.506c-4.229,9.984-17.2,21.822-35.448,20.856a37.36,37.36,0,0,1-14.517-70.845" transform="translate(0 -119.677)" fill="#cc5e12"/>
  </g>
</svg>
