<svg id="Grupo_364" data-name="Grupo 364" xmlns="http://www.w3.org/2000/svg" width="135.256" height="132.305" viewBox="0 0 135.256 132.305">
  <g id="Grupo_356" data-name="Grupo 356">
    <g id="Grupo_351" data-name="Grupo 351" transform="translate(2.585)">
      <g id="Grupo_350" data-name="Grupo 350">
        <path id="Trazado_1612" data-name="Trazado 1612" d="M258.409,224.381a4.478,4.478,0,0,0-6.237,0L227,249h56.579Z" transform="translate(-227.002 -223.117)" fill="#cc5e12"/>
      </g>
    </g>
    <g id="Grupo_353" data-name="Grupo 353" transform="translate(70.569 61.9)">
      <g id="Grupo_352" data-name="Grupo 352">
        <path id="Trazado_1613" data-name="Trazado 1613" d="M310.1,288.416c-11.98,0-20.728-6.526-24.633-15.253A52.185,52.185,0,0,0,249.826,243.9V309.99a4.411,4.411,0,0,0,8.82,0V279.168a25.323,25.323,0,0,1,2.583,4.37,51.123,51.123,0,0,0,6.237,10.383v16.07a4.412,4.412,0,0,0,8.823,0v-7.164A53.221,53.221,0,0,0,310.1,314.3a4.366,4.366,0,0,0,4.411-4.313V292.732A4.367,4.367,0,0,0,310.1,288.416Z" transform="translate(-249.826 -243.898)" fill="#cc5e12"/>
      </g>
    </g>
    <g id="Grupo_355" data-name="Grupo 355" transform="translate(0 34.515)">
      <g id="Grupo_354" data-name="Grupo 354">
        <path id="Trazado_1614" data-name="Trazado 1614" d="M226.134,234.7v93.478a4.366,4.366,0,0,0,4.411,4.313h17.642a4.366,4.366,0,0,0,4.411-4.313v-7.19h8.82v7.19a4.364,4.364,0,0,0,4.411,4.313h17.642a4.364,4.364,0,0,0,4.408-4.313V234.7Zm35.285,77.658H252.6v-8.629h8.82Zm0-17.258H252.6v-8.629h8.82Zm4.411-30.2H248.188v-8.629a8.823,8.823,0,0,1,17.642,0V264.9Z" transform="translate(-226.134 -234.704)" fill="#cc5e12"/>
      </g>
    </g>
  </g>
</svg>
