<svg xmlns="http://www.w3.org/2000/svg" width="245.097" height="268" viewBox="0 0 245.097 268">
  <g id="Grupo_332" data-name="Grupo 332" transform="translate(-100)">
    <g id="Grupo_14" data-name="Grupo 14" transform="translate(-228.7)">
      <path id="Rectángulo_1" data-name="Rectángulo 1" d="M0,0H245.1a0,0,0,0,1,0,0V268a0,0,0,0,1,0,0H46.24A46.24,46.24,0,0,1,0,221.76V0A0,0,0,0,1,0,0Z" transform="translate(328.7)"/>
    </g>
    <g id="Grupo_308" data-name="Grupo 308" transform="translate(51.849 -60.27)">
      <g id="Grupo_307" data-name="Grupo 307" transform="translate(76.451 143.27)">
        <g id="Grupo_306" data-name="Grupo 306">
          <g id="Grupo_303" data-name="Grupo 303" transform="translate(32.611)">
            <path id="Trazado_1520" data-name="Trazado 1520" d="M387.246,248.076l-8.736,15.9H360.832l8.872-15.9Z" transform="translate(-263.97 -200.36)" fill="#8d5e00"/>
            <path id="Trazado_1521" data-name="Trazado 1521" d="M287.167,143.27l-44.093,79.275L225.477,191l8.791-15.918,8.806,15.907,8.85-15.945,17.635-31.771Z" transform="translate(-190.239 -143.27)" fill="#ffa80d"/>
            <path id="Trazado_1522" data-name="Trazado 1522" d="M334.569,190.986H317.027l-8.806-15.907-8.808,15.907-17.472,31.56H264.128l44.093-79.275Z" transform="translate(-211.293 -143.27)" fill="#b17609"/>
            <path id="Trazado_1523" data-name="Trazado 1523" d="M192.172,143.27l-26.414,47.716H148.08l26.485-47.716Z" transform="translate(-148.08 -143.27)" fill="#ffa80d"/>
            <path id="Trazado_1524" data-name="Trazado 1524" d="M230.915,175.041l-8.85,15.945-8.806-15.907L204.468,191l-8.78,15.891-8.779-15.9,26.414-47.716Z" transform="translate(-169.231 -143.27)" fill="#b17609"/>
            <line id="Línea_514" data-name="Línea 514" x1="0.022" y1="0.038" transform="translate(61.684 31.771)" fill="#ffa80d"/>
            <path id="Trazado_1525" data-name="Trazado 1525" d="M359.245,229.043l-8.872,15.9-8.742-15.9,8.808-15.907Z" transform="translate(-253.511 -181.328)" fill="#ffa80d"/>
            <line id="Línea_515" data-name="Línea 515" x1="0.005" y1="0.011" transform="translate(35.232 47.716)" fill="#ffa80d"/>
            <path id="Trazado_1526" data-name="Trazado 1526" d="M174.537,263.978H156.962l-8.882-15.9h17.678Z" transform="translate(-148.08 -200.36)" fill="#8d5e00"/>
          </g>
          <g id="Grupo_304" data-name="Grupo 304" transform="translate(0 91.283)">
            <path id="Trazado_1527" data-name="Trazado 1527" d="M81.131,349.663a3.5,3.5,0,0,1-.8.389,2.476,2.476,0,0,1-1,.159A2.728,2.728,0,0,1,77.3,349.4a2.963,2.963,0,0,1-.852-2.194,3.264,3.264,0,0,1,.841-2.316,2.8,2.8,0,0,1,2.1-.916,3.078,3.078,0,0,1,.963.144,5.055,5.055,0,0,1,.848.476l-.029.606a5.875,5.875,0,0,0-.845-.556,2.367,2.367,0,0,0-.938-.188,2.229,2.229,0,0,0-1.724.743A2.864,2.864,0,0,0,77,347.115a2.661,2.661,0,0,0,.664,1.9,2.3,2.3,0,0,0,1.724.714,2.64,2.64,0,0,0,1.743-.692Z" transform="translate(-76.451 -343.883)" fill="#fff"/>
            <path id="Trazado_1528" data-name="Trazado 1528" d="M120.284,347.08a3.037,3.037,0,0,1-.851,2.214,2.877,2.877,0,0,1-2.132.881,2.752,2.752,0,0,1-2.089-.9,3.126,3.126,0,0,1-.859-2.236,3.054,3.054,0,0,1,.859-2.187,2.92,2.92,0,0,1,2.133-.938,2.851,2.851,0,0,1,2.089.946,3.117,3.117,0,0,1,.851,2.222m-2.983,2.641h0a2.163,2.163,0,0,0,1.72-.771,2.577,2.577,0,0,0,.733-1.877,2.7,2.7,0,0,0-.714-1.891,2.1,2.1,0,0,0-1.7-.757,2.234,2.234,0,0,0-1.725.757,2.637,2.637,0,0,0-.714,1.876,2.711,2.711,0,0,0,.7,1.877,2.227,2.227,0,0,0,1.7.787" transform="translate(-97.097 -343.847)" fill="#fff"/>
            <path id="Trazado_1529" data-name="Trazado 1529" d="M159.978,350.119l-3.957-4.965v4.784h-.455V343.77l3.929,4.971v-4.747h.484Z" transform="translate(-119.547 -343.77)" fill="#fff"/>
            <path id="Trazado_1530" data-name="Trazado 1530" d="M195.443,344.951a1.151,1.151,0,0,0-.437-.461,1.193,1.193,0,0,0-.426-.065.775.775,0,0,0-.635.245,1.055,1.055,0,0,0-.249.678.867.867,0,0,0,.249.576,11.54,11.54,0,0,0,1.093.852,2.689,2.689,0,0,1,.784.735,1.616,1.616,0,0,1,.292.931,1.878,1.878,0,0,1-.422,1.278,1.628,1.628,0,0,1-1.19.455,1.494,1.494,0,0,1-.891-.253,2.084,2.084,0,0,1-.689-.888l.462-.253a1.442,1.442,0,0,0,.4.693,1.067,1.067,0,0,0,.714.245,1.091,1.091,0,0,0,.844-.346,1.332,1.332,0,0,0,.3-.9,1.259,1.259,0,0,0-.36-.88,1.954,1.954,0,0,0-.52-.41,5.542,5.542,0,0,1-1.277-.989,1.292,1.292,0,0,1-.292-.844,1.392,1.392,0,0,1,.389-1.025,1.488,1.488,0,0,1,1.042-.412,1.384,1.384,0,0,1,.679.187,1.724,1.724,0,0,1,.555.6Z" transform="translate(-139.895 -343.847)" fill="#fff"/>
            <path id="Trazado_1531" data-name="Trazado 1531" d="M230.455,344.773H228.94v5.434h-.534v-5.434H226.89v-.512h3.565Z" transform="translate(-158.398 -344.038)" fill="#fff"/>
            <path id="Trazado_1532" data-name="Trazado 1532" d="M262.231,344.262h1.018a1.958,1.958,0,0,1,1.45.519,1.69,1.69,0,0,1,.346,1.12,1.366,1.366,0,0,1-1.443,1.486l2.006,2.821h-.635l-1.948-2.821h-.289v2.821h-.505Zm.881,2.677h0a1.856,1.856,0,0,0,1.089-.252.81.81,0,0,0,.281-.708,1.283,1.283,0,0,0-.274-.974,1.721,1.721,0,0,0-1.14-.26h-.332v2.194Z" transform="translate(-177.649 -344.038)" fill="#fff"/>
            <path id="Trazado_1533" data-name="Trazado 1533" d="M300.856,344.262v3.73c0,1.573-.656,2.374-2.006,2.374s-2.006-.8-2.006-2.374v-3.73h.483v3.9c0,1.153.5,1.753,1.508,1.753a1.519,1.519,0,0,0,1.133-.412,1.909,1.909,0,0,0,.4-1.341v-3.9Z" transform="translate(-196.504 -344.038)" fill="#fff"/>
            <path id="Trazado_1534" data-name="Trazado 1534" d="M338.446,349.663a3.792,3.792,0,0,1-.807.389,2.46,2.46,0,0,1-.975.159,2.768,2.768,0,0,1-2.048-.809,2.889,2.889,0,0,1-.845-2.194,3.324,3.324,0,0,1,.808-2.316,2.837,2.837,0,0,1,2.136-.916,3.043,3.043,0,0,1,.938.144,4.918,4.918,0,0,1,.845.476l-.022.606a6.067,6.067,0,0,0-.836-.556,2.4,2.4,0,0,0-.938-.188,2.249,2.249,0,0,0-1.746.743,2.839,2.839,0,0,0-.656,1.912,2.788,2.788,0,0,0,.656,1.9,2.328,2.328,0,0,0,1.746.714,2.672,2.672,0,0,0,1.745-.692Z" transform="translate(-216.618 -343.883)" fill="#fff"/>
            <path id="Trazado_1535" data-name="Trazado 1535" d="M374.567,344.773h-1.543v5.434h-.491v-5.434h-1.565v-.512h3.6Z" transform="translate(-236.88 -344.038)" fill="#fff"/>
            <path id="Trazado_1536" data-name="Trazado 1536" d="M411.685,347.08a3.131,3.131,0,0,1-.83,2.214,2.932,2.932,0,0,1-2.158.881,2.786,2.786,0,0,1-2.092-.9,3.169,3.169,0,0,1-.851-2.236,3.056,3.056,0,0,1,.88-2.187,2.821,2.821,0,0,1,2.121-.938,2.86,2.86,0,0,1,2.1.946,3.216,3.216,0,0,1,.83,2.222m-2.994,2.641h0a2.231,2.231,0,0,0,1.767-.771,2.633,2.633,0,0,0,.708-1.877,2.691,2.691,0,0,0-.708-1.891,2.209,2.209,0,0,0-1.7-.757,2.279,2.279,0,0,0-1.746.757,2.8,2.8,0,0,0,0,3.752,2.24,2.24,0,0,0,1.682.787" transform="translate(-255.829 -343.847)" fill="#fff"/>
            <path id="Trazado_1537" data-name="Trazado 1537" d="M446.926,344.262h1.025a1.966,1.966,0,0,1,1.457.519,1.623,1.623,0,0,1,.367,1.12,1.516,1.516,0,0,1-.4,1.082,1.445,1.445,0,0,1-1.082.4l2.028,2.821h-.65l-1.926-2.821h-.317v2.821h-.506Zm.925,2.677h0a1.758,1.758,0,0,0,1.052-.252.806.806,0,0,0,.332-.708,1.311,1.311,0,0,0-.3-.974,1.787,1.787,0,0,0-1.14-.26h-.361v2.194Z" transform="translate(-278.256 -344.038)" fill="#fff"/>
            <path id="Trazado_1538" data-name="Trazado 1538" d="M483.453,347.954h-2.281l-.728,1.985h-.505l2.446-6.169,2.352,6.169-.563.036Zm-2.107-.468h1.977l-.952-2.613Z" transform="translate(-296.239 -343.77)" fill="#fff"/>
          </g>
          <g id="Grupo_305" data-name="Grupo 305" transform="translate(0.405 105.935)">
            <path id="Trazado_1539" data-name="Trazado 1539" d="M80.987,382.347l-1.75,15.369h-1.9l2.485-21.61,9.46,17.187,9.062-17.209,2.677,21.632H99.1L97.1,382.773l-7.911,14.944Z" transform="translate(-77.34 -376.024)" fill="#fff"/>
            <path id="Trazado_1540" data-name="Trazado 1540" d="M161.244,387.5a10.338,10.338,0,0,1-3.074,7.51,10.245,10.245,0,0,1-14.734,0,10.8,10.8,0,0,1,0-15.021,10.227,10.227,0,0,1,14.734,0,10.35,10.35,0,0,1,3.074,7.511m-1.919,0h0a8.295,8.295,0,0,0-8.6-8.6,8.158,8.158,0,0,0-6.079,2.395,9.374,9.374,0,0,0,0,12.4,8.087,8.087,0,0,0,6.079,2.41,8.3,8.3,0,0,0,8.6-8.607" transform="translate(-111.689 -376.445)" fill="#fff"/>
            <path id="Trazado_1541" data-name="Trazado 1541" d="M201.6,379.973v17.743H199.68V376.085h1.955l8.766,18.089V376.085h1.912v21.632h-1.926Z" transform="translate(-143.981 -376.024)" fill="#fff"/>
            <path id="Trazado_1542" data-name="Trazado 1542" d="M246.951,397.671a12.413,12.413,0,0,1-2.236-.152,4.326,4.326,0,0,1-2.021-.937,9.682,9.682,0,0,1-1.76-2.108l1.6-.923a15.587,15.587,0,0,0,1.58,1.458,6.213,6.213,0,0,0,2.835.621Zm6.725-6.5c0-1.515-1.1-3.024-3.311-4.481a20.177,20.177,0,0,0-3.3-1.789c-2.569-1.206-3.767-2.46-3.651-3.76a3.25,3.25,0,0,1,1.183-2.352,3.137,3.137,0,0,1,2.41-.8v-2.019a4.726,4.726,0,0,0-3.781,1.392,5.439,5.439,0,0,0-1.731,3.781c-.094,2.013,1.768,3.91,5.592,5.779,3.1,1.256,4.682,2.691,4.682,4.251a4.311,4.311,0,0,1-1.255,3.167,3.961,3.961,0,0,1-3,1.32h-.564v1.985a4.767,4.767,0,0,0,.6.028,5.839,5.839,0,0,0,4.33-1.919,6.241,6.241,0,0,0,1.8-4.581m-3.391-10.68h0c-.115-.289-.231-.526-.346-.772a3.361,3.361,0,0,0-.9-1.133,2.9,2.9,0,0,0-2.035-.6v-2.019a4.592,4.592,0,0,1,3.356,1.038,7.538,7.538,0,0,1,1.681,2.583Z" transform="translate(-166.453 -375.95)" fill="#fff"/>
            <path id="Trazado_1543" data-name="Trazado 1543" d="M282.5,376.085h1.912V397.7H282.5Zm1.905,1.983h6.933v-1.983h-6.933Zm0,7.865h6.933v-2.056h-6.933Zm0,11.783h6.933v-2.028h-6.933Z" transform="translate(-189.096 -376.024)" fill="#fff"/>
            <path id="Trazado_1544" data-name="Trazado 1544" d="M321.67,388.335l5.793,9.365h-1.947l-5.737-9.257h-2.43V397.7h-1.9V376.084h5.065a6.578,6.578,0,0,1,4.6,1.68,5.471,5.471,0,0,1,2.056,4.36,6.045,6.045,0,0,1-1.608,4.213,6.462,6.462,0,0,1-3.9,2m-4.321-1.94h3.166a5.06,5.06,0,0,0,3.464-1.191,4.125,4.125,0,0,0-.058-6.024,5.048,5.048,0,0,0-3.406-1.062h-3.166Z" transform="translate(-207.043 -376.022)" fill="#fff"/>
            <path id="Trazado_1545" data-name="Trazado 1545" d="M361.622,388.335l5.787,9.365h-1.92l-5.743-9.257h-2.438V397.7h-1.92V376.084h5.08a6.45,6.45,0,0,1,4.574,1.68,5.421,5.421,0,0,1,2.092,4.36,6.081,6.081,0,0,1-1.615,4.213,6.459,6.459,0,0,1-3.9,2m-4.314-1.94h3.16a4.956,4.956,0,0,0,3.449-1.191,3.747,3.747,0,0,0,1.313-3.08,3.857,3.857,0,0,0-1.328-2.944,5.182,5.182,0,0,0-3.435-1.062h-3.16Z" transform="translate(-228.798 -376.022)" fill="#fff"/>
            <path id="Trazado_1546" data-name="Trazado 1546" d="M403.948,392.611h-7.62l-1.753,5.088h-2.389l8.024-21.646,7.922,21.646h-2.358Zm-6.869-2.026h6.155l-3.088-8.529Z" transform="translate(-248.843 -376.006)" fill="#fff"/>
            <path id="Trazado_1547" data-name="Trazado 1547" d="M440.807,376.089v2.028h-5.526V397.7h-1.927V378.1h-5.715v-2.049Z" transform="translate(-268.155 -376.006)" fill="#fff"/>
            <path id="Trazado_1548" data-name="Trazado 1548" d="M470.128,376.085h1.919V397.7h-1.919Zm1.919,1.983h6.942v-1.983h-6.942Zm0,7.865h6.942v-2.056h-6.942Zm0,11.783h6.942v-2.028h-6.942Z" transform="translate(-291.299 -376.024)" fill="#fff"/>
          </g>
        </g>
      </g>
    </g>
  </g>
</svg>
