<svg xmlns="http://www.w3.org/2000/svg" xmlns:xlink="http://www.w3.org/1999/xlink" width="245.097" height="268" viewBox="0 0 245.097 268">
  <defs>
    <linearGradient id="linear-gradient" y1="0.5" x2="1" y2="0.5" gradientUnits="objectBoundingBox">
      <stop offset="0" stop-color="#dfebf8"/>
      <stop offset="0.057" stop-color="#d0e5f5"/>
      <stop offset="0.164" stop-color="#abd6ef"/>
      <stop offset="0.31" stop-color="#70bde4"/>
      <stop offset="0.488" stop-color="#1e9cd6"/>
      <stop offset="0.551" stop-color="#0090d1"/>
      <stop offset="0.556" stop-color="#007bc0"/>
      <stop offset="0.809" stop-color="#0069a4"/>
      <stop offset="0.994" stop-color="#005889"/>
    </linearGradient>
    <linearGradient id="linear-gradient-2" y1="0.5" x2="1" y2="0.5" gradientUnits="objectBoundingBox">
      <stop offset="0" stop-color="#fff"/>
      <stop offset="0.047" stop-color="#f5fafd"/>
      <stop offset="0.125" stop-color="#dceff8"/>
      <stop offset="0.224" stop-color="#b2ddf1"/>
      <stop offset="0.341" stop-color="#78c4e6"/>
      <stop offset="0.471" stop-color="#30a4d9"/>
      <stop offset="0.551" stop-color="#0090d1"/>
      <stop offset="0.556" stop-color="#007bc0"/>
      <stop offset="0.809" stop-color="#0069a4"/>
      <stop offset="0.994" stop-color="#005889"/>
    </linearGradient>
  </defs>
  <g id="Grupo_331" data-name="Grupo 331" transform="translate(-328.7)">
    <path id="Rectángulo_1" data-name="Rectángulo 1" d="M0,0H245.1a0,0,0,0,1,0,0V221.76A46.24,46.24,0,0,1,198.857,268H0a0,0,0,0,1,0,0V0A0,0,0,0,1,0,0Z" transform="translate(328.7)" fill="#fff"/>
    <g id="Grupo_13" data-name="Grupo 13" transform="translate(350.82 86.17)">
      <g id="Grupo_10" data-name="Grupo 10" transform="translate(48.35)">
        <path id="Trazado_1" data-name="Trazado 1" d="M437.792,191.82c-11.182,1.575-17.8,1.417-22.049-.945s-3.15-7.4,3.622-7.4S429.13,191.82,437.792,191.82Z" transform="translate(-413.23 -133.688)" fill="#b09985"/>
        <g id="Grupo_5" data-name="Grupo 5" transform="translate(9.208 38.378)">
          <g id="Grupo_1" data-name="Grupo 1" transform="translate(0 9.354)">
            <ellipse id="Elipse_1" data-name="Elipse 1" cx="3.259" cy="3.385" rx="3.259" ry="3.385" transform="translate(0.626 0.791)" fill="#008d36"/>
            <path id="Trazado_2" data-name="Trazado 2" d="M429.394,192.514a18.2,18.2,0,0,1-.363-4.252c0-.238,0-.794,0-1.03a.3.3,0,0,0-.023-.119c.012-.28.022-.56.023-.841a.281.281,0,0,0-.163-.256c.016-.234.031-.469.043-.7.02-.387-.95.383-.912.767a25.9,25.9,0,0,1-.252,6.378.8.8,0,0,0,.811.643C429,193.1,429.366,192.878,429.394,192.514Z" transform="translate(-424.852 -181.709)" fill="#7a6a58"/>
            <path id="Trazado_3" data-name="Trazado 3" d="M427.756,183.5c.889,1.666.669,4.882.669,4.882s-2.8-1.606-3.685-3.272-.37-2.318.463-2.762S426.865,181.837,427.756,183.5Z" transform="translate(-424.275 -181.189)" fill="#063"/>
            <path id="Trazado_4" data-name="Trazado 4" d="M430.379,183.442c-.007,2.065-1.936,5.046-1.936,5.046s-1.911-2.993-1.9-5.058.868-2.423,1.927-2.419S430.385,181.377,430.379,183.442Z" transform="translate(-424.652 -181.011)" fill="#008d36"/>
            <path id="Trazado_5" data-name="Trazado 5" d="M432.356,185.3c-.886,1.635-3.767,3.133-3.767,3.133s-.318-3.232.568-4.866,1.757-1.532,2.64-1.053S433.242,183.663,432.356,185.3Z" transform="translate(-424.983 -181.209)" fill="#93c01f"/>
          </g>
          <g id="Grupo_2" data-name="Grupo 2" transform="translate(4.225 11.189)">
            <path id="Trazado_6" data-name="Trazado 6" d="M435.01,186.591a2.543,2.543,0,1,1-2.541-2.639A2.591,2.591,0,0,1,435.01,186.591Z" transform="translate(-429.44 -183.336)" fill="#008d36"/>
            <path id="Trazado_7" data-name="Trazado 7" d="M433.334,192.181a14.166,14.166,0,0,1-.283-3.315c0-.184,0-.618,0-.8a.236.236,0,0,0-.018-.093c.01-.218.017-.437.018-.655a.219.219,0,0,0-.128-.2c.012-.183.024-.365.034-.549.015-.3-.741.3-.712.6a20.142,20.142,0,0,1-.2,4.972.624.624,0,0,0,.633.5C433.029,192.639,433.313,192.465,433.334,192.181Z" transform="translate(-429.793 -183.757)" fill="#7a6a58"/>
            <path id="Trazado_8" data-name="Trazado 8" d="M432.057,185.156a9.045,9.045,0,0,1,.522,3.806,9.054,9.054,0,0,1-2.874-2.551c-.694-1.3-.288-1.807.361-2.153S431.363,183.857,432.057,185.156Z" transform="translate(-429.343 -183.352)" fill="#063"/>
            <path id="Trazado_9" data-name="Trazado 9" d="M434.1,185.108a9.735,9.735,0,0,1-1.509,3.935,9.734,9.734,0,0,1-1.485-3.944c.005-1.61.676-1.888,1.5-1.886S434.107,183.5,434.1,185.108Z" transform="translate(-429.637 -183.213)" fill="#008d36"/>
            <path id="Trazado_10" data-name="Trazado 10" d="M435.643,186.555A8.516,8.516,0,0,1,432.706,189a8.528,8.528,0,0,1,.443-3.795c.691-1.274,1.37-1.194,2.058-.82S436.335,185.28,435.643,186.555Z" transform="translate(-429.895 -183.367)" fill="#93c01f"/>
          </g>
          <g id="Grupo_3" data-name="Grupo 3" transform="translate(73.457)">
            <ellipse id="Elipse_2" data-name="Elipse 2" cx="3.259" cy="3.385" rx="3.259" ry="3.385" transform="translate(0.626 0.791)" fill="#008d36"/>
            <path id="Trazado_11" data-name="Trazado 11" d="M517.507,181.294a18.2,18.2,0,0,1-.363-4.252c0-.237,0-.793,0-1.03a.3.3,0,0,0-.023-.119c.012-.28.022-.56.023-.841a.281.281,0,0,0-.163-.256c.016-.234.031-.469.043-.7.019-.387-.951.383-.913.767a25.9,25.9,0,0,1-.252,6.378.8.8,0,0,0,.811.643C517.116,181.881,517.479,181.658,517.507,181.294Z" transform="translate(-512.965 -170.489)" fill="#a3897a"/>
            <path id="Trazado_12" data-name="Trazado 12" d="M515.868,172.283c.89,1.666.67,4.882.67,4.882s-2.8-1.606-3.686-3.271-.37-2.318.463-2.763S514.978,170.617,515.868,172.283Z" transform="translate(-512.388 -169.969)" fill="#063"/>
            <path id="Trazado_13" data-name="Trazado 13" d="M518.492,172.222c-.007,2.065-1.936,5.047-1.936,5.047s-1.911-2.994-1.9-5.059.867-2.423,1.927-2.419S518.5,170.157,518.492,172.222Z" transform="translate(-512.765 -169.791)" fill="#008d36"/>
            <path id="Trazado_14" data-name="Trazado 14" d="M520.469,174.077c-.885,1.634-3.767,3.132-3.767,3.132s-.318-3.232.568-4.866,1.757-1.532,2.64-1.053S521.355,172.443,520.469,174.077Z" transform="translate(-513.097 -169.989)" fill="#93c01f"/>
          </g>
          <g id="Grupo_4" data-name="Grupo 4" transform="translate(77.682 3.17)">
            <ellipse id="Elipse_3" data-name="Elipse 3" cx="2.541" cy="2.639" rx="2.541" ry="2.639" transform="translate(0.488 0.617)" fill="#008d36"/>
            <path id="Trazado_15" data-name="Trazado 15" d="M521.447,182.562a14.161,14.161,0,0,1-.283-3.315c0-.185,0-.619,0-.8a.228.228,0,0,0-.018-.093c.01-.218.017-.437.018-.656a.218.218,0,0,0-.128-.2q.019-.275.034-.549c.015-.3-.741.3-.712.6a20.175,20.175,0,0,1-.2,4.973.623.623,0,0,0,.632.5C521.142,183.021,521.426,182.846,521.447,182.562Z" transform="translate(-517.906 -174.138)" fill="#a3897a"/>
            <path id="Trazado_16" data-name="Trazado 16" d="M520.17,175.537a9.049,9.049,0,0,1,.522,3.807,9.054,9.054,0,0,1-2.874-2.551c-.694-1.3-.288-1.807.361-2.154S519.476,174.238,520.17,175.537Z" transform="translate(-517.456 -173.733)" fill="#063"/>
            <path id="Trazado_17" data-name="Trazado 17" d="M522.215,175.49a9.73,9.73,0,0,1-1.509,3.934,9.729,9.729,0,0,1-1.485-3.943c0-1.61.676-1.889,1.5-1.887S522.22,173.88,522.215,175.49Z" transform="translate(-517.75 -173.594)" fill="#008d36"/>
            <path id="Trazado_18" data-name="Trazado 18" d="M523.757,176.936a8.525,8.525,0,0,1-2.938,2.443,8.526,8.526,0,0,1,.443-3.794c.691-1.275,1.37-1.195,2.058-.821S524.448,175.662,523.757,176.936Z" transform="translate(-518.008 -173.748)" fill="#93c01f"/>
          </g>
        </g>
        <g id="Grupo_9" data-name="Grupo 9" transform="translate(24.04)">
          <g id="Grupo_6" data-name="Grupo 6" transform="translate(30.597 10.992)">
            <path id="Trazado_19" data-name="Trazado 19" d="M492.971,136.94l-14.2,8.2v34.3a59.245,59.245,0,0,1,14.2-4.294Z" transform="translate(-478.768 -136.94)" fill="#1d70b7"/>
            <path id="Trazado_20" data-name="Trazado 20" d="M504,173.525V141.674l-8.2-4.734v38.208C498.319,174.728,504,175.29,504,173.525Z" transform="translate(-481.602 -136.94)" fill="url(#linear-gradient)"/>
            <path id="Trazado_21" data-name="Trazado 21" d="M478.769,149.471v-1.591l12.971-6.241Z" transform="translate(-478.768 -137.722)" fill="#fff"/>
            <path id="Trazado_22" data-name="Trazado 22" d="M478.769,152.7V151.11l12.971-6.241Z" transform="translate(-478.768 -138.259)" fill="#fff"/>
            <path id="Trazado_23" data-name="Trazado 23" d="M478.769,155.93v-1.591L491.74,148.1Z" transform="translate(-478.768 -138.796)" fill="#fff"/>
            <path id="Trazado_24" data-name="Trazado 24" d="M478.769,159.159v-1.591l12.971-6.241Z" transform="translate(-478.768 -139.333)" fill="#fff"/>
            <path id="Trazado_25" data-name="Trazado 25" d="M478.769,162.389V160.8l12.971-6.241Z" transform="translate(-478.768 -139.87)" fill="#fff"/>
            <path id="Trazado_26" data-name="Trazado 26" d="M478.769,165.618v-1.591l12.971-6.241Z" transform="translate(-478.768 -140.408)" fill="#fff"/>
            <path id="Trazado_27" data-name="Trazado 27" d="M478.769,168.847v-1.591l12.971-6.241Z" transform="translate(-478.768 -140.945)" fill="#fff"/>
            <path id="Trazado_28" data-name="Trazado 28" d="M478.769,172.077v-1.591l12.971-6.241Z" transform="translate(-478.768 -141.482)" fill="#fff"/>
            <path id="Trazado_29" data-name="Trazado 29" d="M478.769,175.306v-1.591l12.971-6.241Z" transform="translate(-478.768 -142.019)" fill="#fff"/>
            <path id="Trazado_30" data-name="Trazado 30" d="M478.769,178.535v-1.591L491.74,170.7Z" transform="translate(-478.768 -142.556)" fill="#fff"/>
            <path id="Trazado_31" data-name="Trazado 31" d="M478.769,181.765v-1.591l12.971-6.241Z" transform="translate(-478.768 -143.093)" fill="#fff"/>
            <path id="Trazado_32" data-name="Trazado 32" d="M478.769,184.994V183.4l12.971-6.241Z" transform="translate(-478.768 -143.63)" fill="#fff"/>
            <path id="Trazado_33" data-name="Trazado 33" d="M501.006,139.943v35.442c.138-.008.273-.017.409-.026V140.18Z" transform="translate(-482.467 -137.44)" fill="#102d69"/>
          </g>
          <g id="Grupo_8" data-name="Grupo 8">
            <path id="Trazado_34" data-name="Trazado 34" d="M463.594,123.755l-9.134,5.274v1.912a25.422,25.422,0,0,0,9.134-2.418Z" transform="translate(-444.128 -123.755)" fill="#95d5f6"/>
            <path id="Trazado_35" data-name="Trazado 35" d="M470.69,129.115V126.8l-5.273-3.045v3.877C467.2,126.821,470.69,131.867,470.69,129.115Z" transform="translate(-445.95 -123.755)" fill="#67afe1"/>
            <path id="Trazado_36" data-name="Trazado 36" d="M461.541,125.576,442.066,136.82v50.741a54.226,54.226,0,0,0,19.475-5.157Z" transform="translate(-442.066 -124.058)" fill="#1d70b7"/>
            <path id="Trazado_37" data-name="Trazado 37" d="M476.67,170.1V132.068l-11.243-6.492V182.4C469.233,180.674,476.67,175.969,476.67,170.1Z" transform="translate(-445.952 -124.058)" fill="url(#linear-gradient-2)"/>
            <g id="Grupo_7" data-name="Grupo 7" transform="translate(1.406 6.891)" style="mix-blend-mode: multiply;isolation: isolate">
              <path id="Trazado_38" data-name="Trazado 38" d="M443.752,141.911V139.9l16.381-7.881Z" transform="translate(-443.752 -132.021)" fill="#b1b1b1"/>
              <path id="Trazado_39" data-name="Trazado 39" d="M443.752,145.989V143.98l16.381-7.881Z" transform="translate(-443.752 -132.699)" fill="#b1b1b1"/>
              <path id="Trazado_40" data-name="Trazado 40" d="M443.752,150.068v-2.009l16.381-7.882Z" transform="translate(-443.752 -133.377)" fill="#b1b1b1"/>
              <path id="Trazado_41" data-name="Trazado 41" d="M443.752,154.146v-2.009l16.381-7.882Z" transform="translate(-443.752 -134.056)" fill="#b1b1b1"/>
              <path id="Trazado_42" data-name="Trazado 42" d="M443.752,158.224v-2.009l16.381-7.882Z" transform="translate(-443.752 -134.734)" fill="#b1b1b1"/>
              <path id="Trazado_43" data-name="Trazado 43" d="M443.752,162.3v-2.009l16.381-7.881Z" transform="translate(-443.752 -135.412)" fill="#b1b1b1"/>
              <path id="Trazado_44" data-name="Trazado 44" d="M443.752,166.38v-2.009l16.381-7.882Z" transform="translate(-443.752 -136.091)" fill="#b1b1b1"/>
              <path id="Trazado_45" data-name="Trazado 45" d="M443.752,170.459V168.45l16.381-7.881Z" transform="translate(-443.752 -136.769)" fill="#b1b1b1"/>
              <path id="Trazado_46" data-name="Trazado 46" d="M443.752,174.537v-2.009l16.381-7.881Z" transform="translate(-443.752 -137.447)" fill="#b1b1b1"/>
              <path id="Trazado_47" data-name="Trazado 47" d="M443.752,178.615v-2.009l16.381-7.882Z" transform="translate(-443.752 -138.126)" fill="#b1b1b1"/>
              <path id="Trazado_48" data-name="Trazado 48" d="M443.752,182.693v-2.009l16.381-7.881Z" transform="translate(-443.752 -138.804)" fill="#b1b1b1"/>
              <path id="Trazado_49" data-name="Trazado 49" d="M443.752,186.771v-2.009l16.381-7.881Z" transform="translate(-443.752 -139.483)" fill="#b1b1b1"/>
              <path id="Trazado_50" data-name="Trazado 50" d="M443.752,190.85v-2.009l16.381-7.881Z" transform="translate(-443.752 -140.161)" fill="#b1b1b1"/>
              <path id="Trazado_51" data-name="Trazado 51" d="M443.752,194.928v-2.009l16.381-7.882Z" transform="translate(-443.752 -140.839)" fill="#b1b1b1"/>
            </g>
            <path id="Trazado_52" data-name="Trazado 52" d="M471.673,129.182v50.733c.207-.154.41-.317.614-.479v-49.9Z" transform="translate(-446.991 -124.658)" fill="#102d69"/>
          </g>
        </g>
        <path id="Trazado_53" data-name="Trazado 53" d="M414.939,191.491C444.7,211.244,465,177.15,507.087,184.437c-10.069-3-19.183-4.97-25.94-4.97C453.639,179.467,441.185,199.879,414.939,191.491Z" transform="translate(-413.514 -133.022)" fill="#16345f"/>
        <path id="Trazado_54" data-name="Trazado 54" d="M439.931,200.085c34.635,4.6,40.4-9.882,81.9-9.882a53.645,53.645,0,0,0-20.751-4.615C473.57,185.588,465.75,197.707,439.931,200.085Z" transform="translate(-417.671 -134.04)" fill="#cc5e12"/>
      </g>
      <g id="Grupo_11" data-name="Grupo 11" transform="translate(0 78.47)">
        <path id="Trazado_55" data-name="Trazado 55" d="M375.318,234.408c0,2.1.007,3.938.019,5.508-1.381-1.716-3.077-3.816-5.073-6.275q-4.762-5.865-11.939-14.733l-.364-.452h-2.729v26.9h3.19v-1.216q0-8.8-.017-14.688c-.007-2.121-.014-3.978-.023-5.561,1.395,1.744,3.1,3.862,5.11,6.331L375.416,244.9l.363.453h2.728v-26.9h-3.189Z" transform="translate(-355.233 -217.977)" fill="#16345f"/>
        <path id="Trazado_56" data-name="Trazado 56" d="M391.622,232.9h12.425V229.81H391.622v-8.266H406.91v-3.087H388.433v26.9h18.961v-3.087H391.622Z" transform="translate(-360.755 -217.977)" fill="#16345f"/>
        <path id="Trazado_57" data-name="Trazado 57" d="M448.055,231q-1.138,2.936-2.261,5.871-.588,1.539-1.194,3.16c-.4-1.06-.8-2.107-1.2-3.133l-7.225-18.442H433.8L426.591,236.9q-.6,1.538-1.205,3.145c-.4-1.059-.792-2.1-1.185-3.126q-1.14-2.952-2.28-5.889l-4.927-12.575h-3.375l10.586,26.9h2.348l4.926-12.571q1.173-2.972,2.314-5.908c.393-1.011.791-2.046,1.191-3.1l1.2,3.11c.752,1.951,1.531,3.946,2.314,5.926l4.927,12.539h2.347l10.585-26.9h-3.372Z" transform="translate(-364.945 -217.977)" fill="#16345f"/>
        <path id="Trazado_58" data-name="Trazado 58" d="M488.6,220.6a13.82,13.82,0,0,0-4.316-1.6,29.917,29.917,0,0,0-6.155-.544h-9.188v26.9h3.19V235.279h5.306a33.214,33.214,0,0,0,6.453-.542,14.7,14.7,0,0,0,4.536-1.611,7.229,7.229,0,0,0,2.78-2.764,7.452,7.452,0,0,0,.87-3.58,7.353,7.353,0,0,0-.83-3.466A7.087,7.087,0,0,0,488.6,220.6Zm.288,6.177a4.512,4.512,0,0,1-.5,2.123,4.281,4.281,0,0,1-1.681,1.608,11.588,11.588,0,0,1-3.557,1.219,30.454,30.454,0,0,1-5.785.46h-5.237V221.544h6.273a24.807,24.807,0,0,1,5.257.471,10.055,10.055,0,0,1,3.212,1.215,3.989,3.989,0,0,1,2.014,3.551Z" transform="translate(-374.147 -217.977)" fill="#16345f"/>
        <path id="Trazado_59" data-name="Trazado 59" d="M524.433,221.309a13.588,13.588,0,0,0-4.715-2.6,18.147,18.147,0,0,0-10.851,0,13.576,13.576,0,0,0-4.714,2.6,12.891,12.891,0,0,0-3.3,4.375,15.784,15.784,0,0,0,0,12.251,12.86,12.86,0,0,0,3.3,4.377,13.577,13.577,0,0,0,4.714,2.6,18.071,18.071,0,0,0,10.851,0,13.611,13.611,0,0,0,4.715-2.6,12.893,12.893,0,0,0,3.3-4.377,15.737,15.737,0,0,0,0-12.231A12.855,12.855,0,0,0,524.433,221.309Zm1.344,10.484a11.512,11.512,0,0,1-.94,4.839,9.72,9.72,0,0,1-2.5,3.364,10.371,10.371,0,0,1-3.631,1.992,15,15,0,0,1-8.828,0A10.36,10.36,0,0,1,506.247,240a9.719,9.719,0,0,1-2.5-3.363,13,13,0,0,1,0-9.714,9.7,9.7,0,0,1,2.5-3.363,10.342,10.342,0,0,1,3.631-1.992,14.552,14.552,0,0,1,4.38-.668h.033a14.667,14.667,0,0,1,4.415.668,10.368,10.368,0,0,1,3.631,1.992,9.731,9.731,0,0,1,2.5,3.364A11.587,11.587,0,0,1,525.776,231.793Z" transform="translate(-379.249 -217.881)" fill="#16345f"/>
        <path id="Trazado_60" data-name="Trazado 60" d="M555.788,234.014a11.743,11.743,0,0,0,3.35-1.661,8.126,8.126,0,0,0,2.328-2.579,6.8,6.8,0,0,0,.862-3.373,7.067,7.067,0,0,0-.8-3.329,6.773,6.773,0,0,0-2.549-2.594,13.252,13.252,0,0,0-4.125-1.514,28.868,28.868,0,0,0-5.824-.509H539.6v26.9h3.19V234.727h7.539l10.94,10.629h4.513l-11.4-10.975A13.938,13.938,0,0,0,555.788,234.014Zm2.884-5.742a4.969,4.969,0,0,1-1.448,1.646,8.269,8.269,0,0,1-2.544,1.241,12.268,12.268,0,0,1-3.609.481H542.8v-10.1h5.962a26.726,26.726,0,0,1,5.552.471,9.734,9.734,0,0,1,3.152,1.177,3.312,3.312,0,0,1,1.306,1.4,4.637,4.637,0,0,1,.371,1.806A4,4,0,0,1,558.672,228.272Z" transform="translate(-385.901 -217.977)" fill="#16345f"/>
        <path id="Trazado_61" data-name="Trazado 61" d="M568.165,218.457v3.087h10.077v23.812h3.19V221.544h10.077v-3.087Z" transform="translate(-390.651 -217.977)" fill="#16345f"/>
      </g>
      <g id="Grupo_12" data-name="Grupo 12" transform="translate(18.798 112.909)">
        <path id="Trazado_62" data-name="Trazado 62" d="M377.782,269.356l5.406-10.13,5.275,10.109-.891.263-2.14-4.1h-4.6l-2.186,4.1Zm3.509-4.689h3.721l-1.868-3.595Z" transform="translate(-377.782 -259.198)" fill="#16345f"/>
        <path id="Trazado_63" data-name="Trazado 63" d="M398.268,269.736V259.593H400a3.746,3.746,0,0,1,2.64.912,3.443,3.443,0,0,1,0,4.838,3.747,3.747,0,0,1-2.64.913h-.824v3.3Zm.905-9.3v4.973h.809a2.837,2.837,0,0,0,2-.661,2.684,2.684,0,0,0,0-3.651,2.837,2.837,0,0,0-2-.661Z" transform="translate(-381.19 -259.259)" fill="#16345f"/>
        <path id="Trazado_64" data-name="Trazado 64" d="M410.337,269.356l5.407-10.13,5.275,10.109-.891.263-2.14-4.1h-4.6l-2.185,4.1Zm3.509-4.689h3.721l-1.868-3.595Z" transform="translate(-383.197 -259.198)" fill="#16345f"/>
        <path id="Trazado_65" data-name="Trazado 65" d="M430.823,269.736V259.593h1.7a3.447,3.447,0,0,1,2.389.8,2.728,2.728,0,0,1,.9,2.138,2.759,2.759,0,0,1-2.458,2.849l3.178,3.815-.831.5-3.972-5.03.72.014a2.545,2.545,0,0,0,1.755-.561,2.257,2.257,0,0,0,0-3.125,2.544,2.544,0,0,0-1.755-.561h-.72v9.121Z" transform="translate(-386.605 -259.259)" fill="#16345f"/>
        <path id="Trazado_66" data-name="Trazado 66" d="M447.394,269.686v-9.234h-2.861l.228-.859h6.187v.859h-2.634v9.107Z" transform="translate(-388.885 -259.259)" fill="#16345f"/>
        <path id="Trazado_67" data-name="Trazado 67" d="M457.943,269.356l5.407-10.13,5.274,10.109-.89.263-2.141-4.1H461l-2.185,4.1Zm3.509-4.689h3.721l-1.868-3.595Z" transform="translate(-391.116 -259.198)" fill="#16345f"/>
        <path id="Trazado_68" data-name="Trazado 68" d="M477.433,269.506l2.139-10.314,3.494,8.3,3.509-8.3,2.127,10.314-.89.193-1.537-7.566-3.208,7.566-3.206-7.566-1.536,7.566Z" transform="translate(-394.358 -259.192)" fill="#16345f"/>
        <path id="Trazado_69" data-name="Trazado 69" d="M499.154,269.559v-9.966h5.526l.212.83h-4.833v3.636h4.1v.818h-4.1v3.836H505.1l-.2.845Z" transform="translate(-397.971 -259.259)" fill="#16345f"/>
        <path id="Trazado_70" data-name="Trazado 70" d="M514.583,269.717v-10.33l6.973,8.027v-7.856l.905-.172v10.33l-6.973-8.064v7.871Z" transform="translate(-400.537 -259.224)" fill="#16345f"/>
        <path id="Trazado_71" data-name="Trazado 71" d="M534.957,269.686v-9.234H532.1l.228-.859h6.187v.859h-2.634v9.107Z" transform="translate(-403.45 -259.259)" fill="#16345f"/>
        <path id="Trazado_72" data-name="Trazado 72" d="M545.066,264.528a5.027,5.027,0,0,1,.445-2.063,5.248,5.248,0,0,1,1.247-1.737,5.09,5.09,0,0,1,1.687-1.044,5.746,5.746,0,0,1,2.035-.355,5.664,5.664,0,0,1,2.008.352,5.178,5.178,0,0,1,1.692,1.047,5.028,5.028,0,0,1,1.259,1.717,5.2,5.2,0,0,1-1.259,5.892,5.137,5.137,0,0,1-1.681,1.045,5.671,5.671,0,0,1-2.019.355,5.764,5.764,0,0,1-2.035-.355,5.105,5.105,0,0,1-1.687-1.045,5.229,5.229,0,0,1-1.247-1.745A5.055,5.055,0,0,1,545.066,264.528Zm.935,0a4.155,4.155,0,0,0,1.294,3.108,4.631,4.631,0,0,0,6.342,0,4.366,4.366,0,0,0,.008-6.215,4.626,4.626,0,0,0-6.341,0A4.155,4.155,0,0,0,546,264.528Z" transform="translate(-405.607 -259.215)" fill="#16345f"/>
        <path id="Trazado_73" data-name="Trazado 73" d="M566.57,267.422a3.258,3.258,0,0,0,1.085,1.079,2.72,2.72,0,0,0,1.4.363,2.459,2.459,0,0,0,1.651-.554,1.762,1.762,0,0,0,.65-1.4q0-1.407-2.471-2.124c-.172-.047-.3-.085-.39-.113a4.014,4.014,0,0,1-1.852-1,2.3,2.3,0,0,1-.589-1.631,2.465,2.465,0,0,1,.879-1.912,3.206,3.206,0,0,1,2.21-.781,3.727,3.727,0,0,1,1.472.278,4.478,4.478,0,0,1,1.315.9l-.6.674a4.272,4.272,0,0,0-1.115-.778,2.749,2.749,0,0,0-1.128-.231,2.143,2.143,0,0,0-1.477.543,1.707,1.707,0,0,0-.606,1.319,1.509,1.509,0,0,0,.236.845,1.821,1.821,0,0,0,.714.612,7.454,7.454,0,0,0,1.294.454q.515.141.788.227a3.8,3.8,0,0,1,1.714,1.037,2.358,2.358,0,0,1,.573,1.6,2.662,2.662,0,0,1-.926,2.067,3.386,3.386,0,0,1-2.353.832,3.7,3.7,0,0,1-1.822-.463,3.931,3.931,0,0,1-1.394-1.314Z" transform="translate(-409.061 -259.217)" fill="#16345f"/>
      </g>
    </g>
  </g>
</svg>
