<svg id="Grupo_328" data-name="Grupo 328" xmlns="http://www.w3.org/2000/svg" width="168.44" height="106.759" viewBox="0 0 168.44 106.759">
  <g id="Grupo_363" data-name="Grupo 363">
    <g id="Grupo_362" data-name="Grupo 362">
      <g id="Grupo_361" data-name="Grupo 361">
        <g id="Grupo_360" data-name="Grupo 360">
          <path id="Trazado_1616" data-name="Trazado 1616" d="M241.387,263.836a9.284,9.284,0,0,1-13.978,0,30.209,30.209,0,0,0-45.4-.191,9.284,9.284,0,0,1-13.874,0,30.205,30.205,0,0,0-45.23,0,9.287,9.287,0,0,1-6.949,3.113h0a9.266,9.266,0,0,1-6.933-3.107,30.083,30.083,0,0,0-17.086-9.593v18.32a12.671,12.671,0,0,1,3.9,2.96,26.889,26.889,0,0,0,40.225-.008,12.6,12.6,0,0,1,18.9.005,26.875,26.875,0,0,0,40.22,0,12.593,12.593,0,0,1,18.962.074,26.887,26.887,0,0,0,40.515,0,12.917,12.917,0,0,1,5.715-3.725V253.877A30.053,30.053,0,0,0,241.387,263.836Z" transform="translate(-91.939 -177.86)" fill="#cc5e12"/>
          <circle id="Elipse_99" data-name="Elipse 99" cx="21.717" cy="21.717" r="21.717" transform="translate(105.375 64.302) rotate(-79.148)" fill="#cc5e12"/>
          <path id="Trazado_1617" data-name="Trazado 1617" d="M153.073,307.677a3.534,3.534,0,0,0,5.093-.005,36.184,36.184,0,0,1,21.19-11.635,20.29,20.29,0,0,0-.806-10.183c-.628-1.778-7.534-24.975-7.534-24.975a13.488,13.488,0,0,1,2.1-9.129c2.908-4.254,9-7.173,17.583-8.462a8.8,8.8,0,1,0-2.6-17.413c-13.746,2.051-23.691,7.411-29.518,15.928a30.738,30.738,0,0,0-4.694,23.129l1.868,7.564a20.805,20.805,0,0,0-3.4.827l-35.523,12.542a20.534,20.534,0,0,0-13.648,17.927,35.933,35.933,0,0,1,49.894,3.886Z" transform="translate(-72.487 -225.777)" fill="#cc5e12"/>
        </g>
      </g>
    </g>
  </g>
</svg>
