<svg id="Grupo_329" data-name="Grupo 329" xmlns="http://www.w3.org/2000/svg" width="163.499" height="145.465" viewBox="0 0 163.499 145.465">
  <path id="Trazado_905" data-name="Trazado 905" d="M1399.765,460.588c-1.3,4.119-2.491,8.516-4.079,12.763-2.36,6.311-5.657,12.085-11.065,16.358a21.546,21.546,0,0,1-17.014,4.573c-.417-.059-.844-.049-1.26-.113-2.44-.38-2.47-.4-3.4,1.9-2.941,7.271-6.071,14.474-8.716,21.852-2.165,6.039-3.753,12.287-5.57,18.451-.287.974-1.006,2.018-.014,2.982a5.184,5.184,0,0,0,1.465.98c3.974,1.792,7.987,3.5,11.932,5.351a23.643,23.643,0,0,1,3.636,2.388c.42.3.947.779.988,1.216a6.533,6.533,0,0,1-.368,2.375,3.487,3.487,0,0,1-1.418-.175q-23.026-8.2-46.046-16.418c-.89-.317-1.141-.694-.726-1.583a2.772,2.772,0,0,1,3.375-1.518c4.154.848,8.289,1.79,12.416,2.762,1.448.341,2.849.878,4.271,1.331a2.046,2.046,0,0,0,2.563-1.1,238.71,238.71,0,0,0,10.294-25.789c1.815-5.759,3.444-11.577,5.2-17.356.2-.662.083-.941-.512-1.244a25.151,25.151,0,0,1-8.663-7.044c-3.585-4.645-4.834-10-4.622-15.761a49.728,49.728,0,0,1,3.932-16.791c4.432-11,10.762-20.869,18.093-30.137a1.457,1.457,0,0,1,1.949-.5c10.545,3.8,21.1,7.554,31.651,11.347a4.293,4.293,0,0,0,3.1.054c10.58-3.813,21.179-7.572,31.759-11.384a1.53,1.53,0,0,1,2.037.533c7.271,9.215,13.573,19.015,17.975,29.945,2.564,6.368,4.383,12.927,3.971,19.879-.514,8.691-4.743,15.1-12.307,19.332-1.634.914-1.682.875-1.22,2.612a238.385,238.385,0,0,0,12.15,35.222c1.006,2.275,1.993,4.558,3.008,6.831.613,1.373,1.467,1.644,2.953,1.241,4.8-1.3,9.6-2.587,14.423-3.77a12.136,12.136,0,0,1,3.529-.133c1.213.07,1.778,1,1.981,2.067.046.241-.43.74-.761.865-2.434.918-4.893,1.768-7.343,2.643q-15.832,5.652-31.664,11.307c-2.377.849-4.746,1.726-7.135,2.541-.479.163-1.355.313-1.5.1-.47-.71-.933-1.615-.264-2.447a6.559,6.559,0,0,1,1.894-1.8c3.974-2.048,7.994-4.008,12.016-5.96.959-.466,2-.771,2.985-1.179a2.13,2.13,0,0,0,1.373-2.812,252.02,252.02,0,0,0-13.061-37.828c-.748-1.677-1.537-3.338-2.24-5.034-.263-.636-.576-.749-1.221-.621a26.135,26.135,0,0,1-10.483.182A22.576,22.576,0,0,1,1411.8,487c-4.991-5.379-7.832-11.925-9.958-18.825C1401.042,465.591,1400.407,462.952,1399.765,460.588ZM1355.637,442.5l.3.295c.144-.025.289-.042.429-.077a28.874,28.874,0,0,1,20.731,2.477c2.72,1.4,5.3,3.074,8.03,4.442a9.14,9.14,0,0,0,7,.925c2.183-.692,4.145-1.94,4.478-4.31a75.211,75.211,0,0,0,.4-8.922,1.417,1.417,0,0,0-.767-1.03c-1.738-.7-3.518-1.293-5.281-1.927q-11.659-4.187-23.313-8.386a1.015,1.015,0,0,0-1.354.454c-.7,1-1.48,1.958-2.151,2.982C1361.292,433.771,1358.469,438.138,1355.637,442.5Zm47.467,6.772c.433-.342.682-.563.953-.747a76.383,76.383,0,0,1,6.755-4.521,16.9,16.9,0,0,1,12.793-1.683,68.644,68.644,0,0,1,8.026,3.341c3.161,1.35,6.389,2.383,9.9,1.993a7.463,7.463,0,0,0,3.852-1.567,129.708,129.708,0,0,0-12.419-19.713,1.408,1.408,0,0,0-1.232-.32c-1.356.4-2.672.933-4,1.41q-12.208,4.369-24.421,8.722a1.233,1.233,0,0,0-1.006,1.4c.081,1.715-.01,3.441.111,5.152C1402.559,444.854,1402.852,446.963,1403.1,449.271Z" transform="translate(-1317.917 -406.225)" fill="#cc5e12"/>
  <path id="Trazado_906" data-name="Trazado 906" d="M1413.639,402.452a2.594,2.594,0,0,1,2.622,1.845c.872,2.967,1.695,5.95,2.435,8.951a2.716,2.716,0,0,1-2.118,3.2,2.6,2.6,0,0,1-3.141-1.663c-.911-3.031-1.762-6.087-2.453-9.175A2.655,2.655,0,0,1,1413.639,402.452Z" transform="translate(-1337.849 -402.428)" fill="#cc5e12"/>
  <path id="Trazado_907" data-name="Trazado 907" d="M1423.07,413.513c.432-1.648.916-3.491,1.4-5.335.294-1.108.587-2.217.894-3.321.5-1.8,1.9-2.741,3.488-2.347s2.35,1.974,1.857,3.84c-.695,2.622-1.337,5.258-2.085,7.865-.59,2.054-2.367,2.867-4.079,1.942A2.836,2.836,0,0,1,1423.07,413.513Z" transform="translate(-1340.453 -402.422)" fill="#cc5e12"/>
  <path id="Trazado_908" data-name="Trazado 908" d="M1440.113,409.82a2.977,2.977,0,0,1,2.562,1.747,2.567,2.567,0,0,1-.531,3.077c-1.507,1.579-3.067,3.109-4.607,4.655-.568.57-1.115,1.167-1.725,1.688a2.659,2.659,0,0,1-3.9-.13,2.613,2.613,0,0,1,.067-3.821q3.07-3.188,6.279-6.239A7.64,7.64,0,0,1,1440.113,409.82Z" transform="translate(-1342.176 -404.007)" fill="#cc5e12"/>
  <path id="Trazado_909" data-name="Trazado 909" d="M1400.9,410.008a5.065,5.065,0,0,1,1.479.754c2.184,2.087,4.387,4.165,6.417,6.4a2.671,2.671,0,0,1-1.24,4.5,2.729,2.729,0,0,1-2.908-.892q-2.982-2.858-5.837-5.844a2.7,2.7,0,0,1-.736-3.235A2.977,2.977,0,0,1,1400.9,410.008Z" transform="translate(-1335.039 -404.048)" fill="#cc5e12"/>
</svg>
