<svg id="Grupo_332" data-name="Grupo 332" xmlns="http://www.w3.org/2000/svg" width="205.269" height="129.158" viewBox="0 0 205.269 129.158">
  <path id="Trazado_899" data-name="Trazado 899" d="M1516.865,291.462c-.167,3.485-1.028,5.867-3.043,7.738q-16.773,15.579-33.556,31.148c-1.935,1.794-2.8,1.968-4.9.4a10.134,10.134,0,0,1-2.876-3.366c-7.529-14.624-14.9-29.329-22.482-43.928a11.848,11.848,0,0,1,2.731-14.514c10.21-8.937,20.218-18.116,30.082-27.436a6.008,6.008,0,0,1,9.646,1.644c5.32,10.409,10.769,20.751,16.167,31.12,2.254,4.33,4.567,8.632,6.734,13.006A31.335,31.335,0,0,1,1516.865,291.462Zm-48.774-12.8a7.872,7.872,0,0,0-2.185-5.4,4.466,4.466,0,0,0-3.216-1.36c-.874.14-1.855,1.434-2.245,2.431a8.394,8.394,0,0,0,.6,6.636c1.057,2.334,2.85,3.62,4.441,3.26S1468.089,281.994,1468.09,278.66Zm13.691,4.477a9.526,9.526,0,0,0,2.258,6.3c2.039,2.173,4.459,1.679,5.388-1.135a8.988,8.988,0,0,0-.558-6.657c-1.1-2.466-2.853-3.754-4.539-3.382C1482.749,278.61,1481.781,280.461,1481.781,283.137Zm26.629,8.853.494-.224c-.888-1.977-1.653-4.024-2.712-5.906a2.539,2.539,0,0,0-3.232-1.31,5,5,0,0,0-2.225,2.553,8.38,8.38,0,0,0,.68,6.628c1.138,2.389,2.9,3.593,4.476,3.171C1507.486,296.474,1508.456,294.581,1508.41,291.99Z" transform="translate(-1311.595 -208.773)" fill="#cc5e12"/>
  <path id="Trazado_900" data-name="Trazado 900" d="M1432.584,346.271c-3.627.155-9.226.473-14.832.61a9.461,9.461,0,0,1-9.2-5.555q-7.783-15.2-15.568-30.395-4.694-9.167-9.383-18.337c-1.348-2.639-.777-3.648,2.16-3.779,11.2-.5,22.405-1.171,33.615-1.4,5.479-.111,9.623,2.773,12.16,7.69,3.506,6.8,6.946,13.626,10.41,20.444q5.978,11.761,11.948,23.525c.191.376.386.748.569,1.127,1.711,3.543.683,5.2-3.275,5.342C1445.648,345.746,1440.1,345.976,1432.584,346.271Zm-26.948-33.909a2.732,2.732,0,0,0,2.936-3.243,9.443,9.443,0,0,0-6.837-7.585,2.839,2.839,0,0,0-3.521,2.672C1397.919,307.543,1402.246,312.3,1405.636,312.363Zm31.245,22.03a2.63,2.63,0,0,0,2.9-2.91c.017-3.318-3.747-7.579-7.027-7.954a2.649,2.649,0,0,0-3.2,2.383C1429.09,329.485,1433.292,334.349,1436.881,334.393Z" transform="translate(-1299.245 -217.727)" fill="#cc5e12"/>
  <path id="Trazado_901" data-name="Trazado 901" d="M1387.92,258.514a27.559,27.559,0,0,0,.763-5.211,3.871,3.871,0,0,0-1.6-2.919,3.814,3.814,0,0,0-3.279.473,8.828,8.828,0,0,0-3.668,8.366c.19,2.077,1.232,2.812,3.917,2.92-1.147,1.082-2.128,2.011-3.112,2.937-2.589,2.439-5.206,4.852-7.767,7.321a8.25,8.25,0,0,0-1.779,10.383c1.052,2.1,2.066,4.226,3.234,6.261a3.447,3.447,0,0,1,.155,3.362,10.847,10.847,0,0,0-.823,4.022c.018,2.988,2.169,4.174,4.776,2.8.258-.136.508-.288.9-.509,1.307,2.5,2.579,4.93,3.982,7.607-3.733.442-7.225.858-10.718,1.266-10.836,1.268-21.685,2.435-32.5,3.851-3.776.494-5.3-.431-5.514-4.81-.141-2.894.659-5.845,1.127-8.757,2.242-13.918,4.558-27.824,6.752-41.751.667-4.234,2.468-7.726,6.5-9.3,2.513-.984,5.387-1.135,8.123-1.443,12.1-1.359,24.211-2.628,36.315-3.956,3.567-.391,5.955.771,6.839,3.563a2.112,2.112,0,0,1-.2,1.773C1396.2,250.756,1391.994,254.68,1387.92,258.514Zm-29.16,37.451c.042-1.584-.164-3.118-1.749-3.855-1.692-.787-3.05.167-4.169,1.32a9.06,9.06,0,0,0-2.761,7.533c.333,2.963,2.7,3.959,5.054,2.155A9.489,9.489,0,0,0,1358.76,295.965Zm6.138-37.589c-.059-1.688-.169-3.253-1.775-4.008-1.72-.808-3.049.188-4.156,1.332a9.128,9.128,0,0,0-2.766,7.535c.316,2.944,2.707,3.966,5.053,2.164A9.571,9.571,0,0,0,1364.9,258.376Zm-12.21,23.091c.67,1.122,1.1,2.613,2.091,3.244a3.647,3.647,0,0,0,3.253-.412,8.632,8.632,0,0,0,3.669-8.479c-.365-2.852-2.711-3.723-5.005-1.939C1354.317,275.728,1353.238,278.264,1352.688,281.467Z" transform="translate(-1290.218 -209.072)" fill="#cc5e12"/>
  <path id="Trazado_902" data-name="Trazado 902" d="M1279.888,274.762c.619-3.926,1.289-8.21,1.973-12.493q3.4-21.33,6.818-42.659c.038-.238.073-.477.122-.713.483-2.349,1.567-2.823,3.539-1.507q12.261,8.18,24.5,16.383a36.351,36.351,0,0,1,5.266,3.779,12.669,12.669,0,0,1,3.88,11.529q-4.028,25.257-8.167,50.5c-.049.3-.119.591-.192.884-.71,2.833-2.566,3.6-4.958,2q-12.541-8.408-25.061-16.85c-1.251-.841-2.535-1.638-3.745-2.534C1281.214,281.106,1279.951,278.417,1279.888,274.762Zm20.691-31.926a32.064,32.064,0,0,0-2.437-5.363c-1.261-1.846-3.371-1.582-4.635.253-1.852,2.689-1.369,7.992.938,10.269,1.553,1.532,3.453,1.452,4.518-.447A28.237,28.237,0,0,0,1300.579,242.836Zm16.182,11.387a32.07,32.07,0,0,0-2.255-5.383c-1.292-2.035-3.546-1.8-4.856.22-1.775,2.738-1.28,7.8.992,10.123,1.56,1.6,3.589,1.442,4.636-.539A29.571,29.571,0,0,0,1316.761,254.223Zm-28.89,13.2a32.817,32.817,0,0,0,2.59,5.52c1.224,1.751,3.288,1.417,4.5-.366,1.779-2.622,1.367-7.84-.8-10.158-1.589-1.7-3.674-1.567-4.77.48A29.9,29.9,0,0,0,1287.871,267.426Zm24.717,12.228c-.273-2.63-1.079-4.921-2.437-6.218a2.671,2.671,0,0,0-4.332.312c-2.034,2.62-1.567,8.286.87,10.55,1.539,1.431,3.345,1.335,4.4-.491A23.539,23.539,0,0,0,1312.588,279.653Z" transform="translate(-1279.888 -204.435)" fill="#cc5e12"/>
  <path id="Trazado_903" data-name="Trazado 903" d="M1342.424,231.82a28.363,28.363,0,0,1-15.173-4.765c-8.236-5.576-16.56-11.023-24.846-16.524a4.544,4.544,0,0,1-1.031-.723c-.387-.468-1.037-1.2-.9-1.515a2.324,2.324,0,0,1,1.566-1.133c3.282-.463,6.585-.786,9.879-1.169,12.1-1.406,24.2-2.788,36.287-4.242a14.5,14.5,0,0,1,10.182,2.176q14.39,9.549,28.83,19.024c.955.629,2.066,1.39,1.459,2.525a3.867,3.867,0,0,1-2.593,1.742c-13.6,1.546-27.21,2.975-40.82,4.42C1344.25,231.743,1343.224,231.77,1342.424,231.82Zm25.493-6.235.211-.295a23.406,23.406,0,0,0,2.946-.741c2.655-1.03,3.067-3.58.808-5.324a8.938,8.938,0,0,0-8.843-1.478c-2.9,1.022-3.379,3.745-.813,5.456C1363.906,224.322,1366.006,224.813,1367.917,225.585Zm-30.16-4.531-.242.279a22.932,22.932,0,0,0-3.282.808c-2.4.969-2.8,3.2-.976,5.011a9.517,9.517,0,0,0,9.457,1.624c2.526-1.193,2.956-3.611.653-5.214C1341.715,222.413,1339.642,221.869,1337.757,221.054Zm13.107-18.22a21.821,21.821,0,0,0-3.413.986c-2.118.99-2.425,3.01-.846,4.705,2.18,2.341,7.08,3.156,9.9,1.648,2.149-1.151,2.463-3.158.7-4.853A10.037,10.037,0,0,0,1350.864,202.834Zm-3.6,17.889a20.959,20.959,0,0,0,3.415-.949c2.22-1.028,2.5-3.045.8-4.817-2.134-2.224-7.041-3.022-9.77-1.589-2.156,1.131-2.5,3.14-.765,4.852A9.671,9.671,0,0,0,1347.266,220.724Zm-23.273-3.965a20.691,20.691,0,0,0,3.309-.7c2.674-1.023,3.1-3.516.837-5.309a8.957,8.957,0,0,0-9.172-1.374c-2.417.916-2.784,3.205-.933,5A9.453,9.453,0,0,0,1323.993,216.759Z" transform="translate(-1283.753 -201.604)" fill="#cc5e12"/>
  <path id="Trazado_904" data-name="Trazado 904" d="M1403.449,270.757c-5.242.227-10.482.491-15.726.642a7.736,7.736,0,0,1-2.373-.741,7.731,7.731,0,0,1,1.142-2.053q12.957-12.1,25.985-24.121c2.654-2.46,5.333-4.892,7.934-7.406a14.571,14.571,0,0,1,9.934-4.117c11.205-.481,22.408-1.045,33.612-1.582,1.152-.055,2.4-.271,2.965,1.09s-.264,2.281-1.193,3.127c-9.767,8.889-19.589,17.716-29.273,26.692a28.751,28.751,0,0,1-19.812,7.9c-4.4.073-8.8.345-13.2.527Zm8.636-14.7c3.937-.365,6.719-1.6,8.467-4.523,1.335-2.23.243-4.328-2.322-4.522a9.044,9.044,0,0,0-8.156,3.732c-.822,1.053-1.527,2.447-.55,3.638A8.745,8.745,0,0,0,1412.085,256.058Zm18-21.134c-4.117.339-6.905,1.661-8.587,4.714-1.113,2.022-.3,3.63,1.943,4.229,2.686.719,6.963-1,8.592-3.723a4.364,4.364,0,0,0,.556-3.432C1432.144,235.761,1430.655,235.3,1430.083,234.923Zm-29.866,33.028c3.088-.369,6.675-2.34,8.034-4.661,1.4-2.39.309-4.554-2.448-4.714a8.613,8.613,0,0,0-7.917,3.786,4.156,4.156,0,0,0-.6,3.419C1397.718,266.75,1399.195,267.249,1400.216,267.952Zm34.184-12.589c3.842-.37,6.531-1.541,8.316-4.251,1.641-2.492.455-4.75-2.515-4.837a8.608,8.608,0,0,0-7.626,3.671,4.463,4.463,0,0,0-.716,3.585C1432.242,254.483,1433.8,254.965,1434.4,255.362Zm-11.859,12.753c2.993-.409,6.233-1.982,7.566-4.327.554-.974.947-2.584.5-3.431a4.112,4.112,0,0,0-3.1-1.6,8.47,8.47,0,0,0-7.413,3.721,4.387,4.387,0,0,0-.6,3.6C1419.912,267.026,1421.482,267.46,1422.542,268.116Zm23.5-24.094c3.876-.3,6.475-1.55,8.245-4.147,1.69-2.48.544-4.744-2.441-4.882a9.053,9.053,0,0,0-7.7,3.582c-.922,1.122-1.641,2.531-.7,3.769A7.707,7.707,0,0,0,1446.042,244.021Z" transform="translate(-1299.703 -207.19)" fill="#cc5e12"/>
</svg>
