<svg id="Grupo_425" data-name="Grupo 425" xmlns="http://www.w3.org/2000/svg" xmlns:xlink="http://www.w3.org/1999/xlink" width="147.892" height="147.674" viewBox="0 0 147.892 147.674">
  <defs>
    <clipPath id="clip-path">
      <rect id="Rectángulo_72" data-name="Rectángulo 72" width="147.891" height="147.674" fill="#cc5e12"/>
    </clipPath>
  </defs>
  <g id="Grupo_424" data-name="Grupo 424" clip-path="url(#clip-path)">
    <path id="Trazado_1662" data-name="Trazado 1662" d="M119.794,179.211c2.084-.955,4-1.784,5.867-2.7a26.725,26.725,0,0,1,25.14.242,3.238,3.238,0,0,1,1.984,3.493,3.02,3.02,0,0,1-2.682,2.778,4.24,4.24,0,0,1-2.346-.443c-6.756-3.4-13.377-3.141-20.059.325-8.314,4.312-16.809,4.394-25.117.1-7.208-3.725-14.115-3.656-21.3.09a25.267,25.267,0,0,1-24.4.056c-7.408-3.858-14.459-3.815-21.865.044-7.981,4.158-16.2,3.918-24.277-.038-2.125-1.04-2.875-2.863-2.01-4.627.891-1.819,2.8-2.257,5.011-1.194,6.526,3.137,12.926,2.849,19.366-.434a47.041,47.041,0,0,1,7.9-2.883,1.822,1.822,0,0,0,1.469-1.425c4.67-15.141,14.739-24.644,30.176-28.071,21.546-4.783,43.334,10.387,46.711,32.252.1.656.229,1.308.427,2.432" transform="translate(-4.93 -84.501)" fill="#cc5e12"/>
    <path id="Trazado_1663" data-name="Trazado 1663" d="M87.69,271.833A28.169,28.169,0,0,1,100.437,275c7.007,3.686,13.869,3.49,20.877-.158,8.2-4.27,16.579-4.217,24.812-.011A23.4,23.4,0,0,0,161,277.371a3.391,3.391,0,0,1,4.2,2.814c.258,1.986-1.043,3.52-3.285,3.868a29.679,29.679,0,0,1-18.471-3.153c-6.224-3.172-12.517-3.018-18.782.069a35.55,35.55,0,0,1-5.789,2.443c-6.507,1.868-12.848,1.153-19.1-1.379a64.02,64.02,0,0,0-9.892-3.206c-1.927-.434-4.071-.049-6.1.149-2.127.208-3.782-.766-4.161-2.7a3.365,3.365,0,0,1,3.022-3.9c1.668-.258,3.359-.368,5.04-.543" transform="translate(-46.807 -159.81)" fill="#cc5e12"/>
    <path id="Trazado_1664" data-name="Trazado 1664" d="M172.383,333.962c-.033,2.527-2.582,3.963-5.016,2.739a20.878,20.878,0,0,0-11.484-2.16,24.046,24.046,0,0,0-8.559,2.807c-8.329,4.142-16.679,4.032-24.992-.114a3.277,3.277,0,0,1-2.073-3.3,2.922,2.922,0,0,1,2.348-2.887,4.147,4.147,0,0,1,2.5.273c6.851,3.354,13.475,2.9,20.194-.575,8.2-4.248,16.553-4.123,24.818.018a3.432,3.432,0,0,1,2.262,3.194" transform="translate(-70.74 -192.726)" fill="#cc5e12"/>
    <path id="Trazado_1665" data-name="Trazado 1665" d="M13.116,59.84A15.4,15.4,0,0,1,21.6,55.913a7.277,7.277,0,0,1,1.981.075,2.874,2.874,0,0,1,2.667,2.878c.075,1.592-.845,3.261-2.371,3.3-3.988.1-6.283,2.311-8.268,5.448a3.078,3.078,0,0,1-5.432-.478A7.928,7.928,0,0,0,3.065,62.36,3.113,3.113,0,0,1,0,58.985c.018-1.825,1.023-2.953,3.113-3.1,3.335-.236,6.185,1.135,8.829,3.015.372.265.715.571,1.173.941" transform="translate(0 -32.86)" fill="#cc5e12"/>
    <path id="Trazado_1666" data-name="Trazado 1666" d="M68.984,3.96A13.957,13.957,0,0,1,78.412,0c2.11-.028,3.582,1.223,3.673,3.1a3.309,3.309,0,0,1-3.4,3.419,7.384,7.384,0,0,0-6.668,4.443,3.318,3.318,0,0,1-6.136.042,7.5,7.5,0,0,0-6.806-4.5A3.274,3.274,0,0,1,55.8,3.142,3.3,3.3,0,0,1,59.438,0a13.451,13.451,0,0,1,8.256,2.941c.4.309.795.626,1.291,1.018" transform="translate(-32.825 0)" fill="#cc5e12"/>
    <path id="Trazado_1667" data-name="Trazado 1667" d="M175.483,81.493c0-1.952-.023-3.9.006-5.855.035-2.361,1.319-3.791,3.336-3.775,1.954.015,3.251,1.416,3.271,3.682q.056,6.163,0,12.326c-.024,2.216-1.423,3.685-3.329,3.664s-3.2-1.491-3.279-3.725c0-.1,0-.205,0-.308q0-3,0-6.009" transform="translate(-103.227 -42.275)" fill="#cc5e12"/>
    <path id="Trazado_1668" data-name="Trazado 1668" d="M48.168,175.839c-.371,2.5-2.527,4.155-4.622,3.309-4.23-1.707-8.409-3.547-12.56-5.441a3.256,3.256,0,0,1,2.591-5.96c4.216,1.743,8.414,3.544,12.523,5.52.895.43,1.389,1.692,2.068,2.571" transform="translate(-17.17 -98.539)" fill="#cc5e12"/>
    <path id="Trazado_1669" data-name="Trazado 1669" d="M292.692,175.76a2.936,2.936,0,0,1,1.878-2.607c4.027-1.788,8.056-3.577,12.119-5.282a3.264,3.264,0,1,1,2.618,5.98c-4.015,1.814-8.049,3.594-12.124,5.268-2.274.934-4.511-.663-4.491-3.359" transform="translate(-172.183 -98.582)" fill="#cc5e12"/>
    <path id="Trazado_1670" data-name="Trazado 1670" d="M123.51,100.144A3.323,3.323,0,0,1,121,103.633a3.218,3.218,0,0,1-3.7-1.824c-1.027-2.178-1.949-4.406-2.912-6.615-.8-1.832-1.636-3.65-2.375-5.506a3.267,3.267,0,1,1,5.977-2.642c1.821,4.014,3.551,8.07,5.3,12.118a4.3,4.3,0,0,1,.219.981" transform="translate(-65.734 -50.045)" fill="#cc5e12"/>
    <path id="Trazado_1671" data-name="Trazado 1671" d="M226.716,100.107a12.193,12.193,0,0,1,.487-1.577q2.376-5.507,4.8-10.991c.96-2.17,2.69-2.992,4.538-2.2,1.8.766,2.416,2.68,1.5,4.814-1.664,3.86-3.33,7.719-5.061,11.549a3.209,3.209,0,0,1-3.789,1.9,3.391,3.391,0,0,1-2.475-3.494" transform="translate(-133.371 -50.027)" fill="#cc5e12"/>
    <path id="Trazado_1672" data-name="Trazado 1672" d="M79.071,131.563a13.957,13.957,0,0,1-2.137,2.637,2.537,2.537,0,0,1-3.406-.208c-3.314-3.2-6.6-6.434-9.8-9.752a3.069,3.069,0,0,1,.359-4.417,3.256,3.256,0,0,1,4.57.18c2.423,2.357,4.792,4.769,7.183,7.16a18.766,18.766,0,0,1,1.822,1.866,22.107,22.107,0,0,1,1.409,2.535" transform="translate(-37.03 -69.988)" fill="#cc5e12"/>
    <path id="Trazado_1673" data-name="Trazado 1673" d="M278.212,118.431a3.789,3.789,0,0,1,3.107,2.087,2.947,2.947,0,0,1-.515,3.566c-3.087,3.148-6.2,6.274-9.373,9.331a3,3,0,0,1-4.405-.01,3.184,3.184,0,0,1-.093-4.565c1.491-1.622,3.085-3.149,4.637-4.715,1.408-1.42,2.771-2.89,4.249-4.232a14.4,14.4,0,0,1,2.393-1.461" transform="translate(-156.489 -69.67)" fill="#cc5e12"/>
  </g>
</svg>
