<svg xmlns="http://www.w3.org/2000/svg" xmlns:xlink="http://www.w3.org/1999/xlink" width="133.494" height="133.383" viewBox="0 0 133.494 133.383">
  <defs>
    <clipPath id="clip-path">
      <rect width="133.494" height="133.383" fill="none"/>
    </clipPath>
    <clipPath id="clip-path-2">
      <rect id="Rectángulo_70" data-name="Rectángulo 70" width="133.494" height="133.383" fill="#cc5e12"/>
    </clipPath>
  </defs>
  <g id="Cuadrícula_de_repetición_1" data-name="Cuadrícula de repetición 1" clip-path="url(#clip-path)">
    <g id="Grupo_419" data-name="Grupo 419">
      <g id="Grupo_418" data-name="Grupo 418" clip-path="url(#clip-path-2)">
        <path id="Trazado_1649" data-name="Trazado 1649" d="M125.561,51.926a21.806,21.806,0,0,1-6.63-16.374,22.148,22.148,0,0,1,9.913-18.332,25.881,25.881,0,0,1,4.115-2.3q14.982-6.8,30-13.519a14.431,14.431,0,0,1,12.883,25.825c-16.546,8.307-33.2,16.392-49.818,24.566a3.032,3.032,0,0,1-.465.131" transform="translate(-94.042 0)" fill="#cc5e12"/>
        <path id="Trazado_1650" data-name="Trazado 1650" d="M94.718,449.487C95,441.263,98.2,434.6,104.989,429.826a23.576,23.576,0,0,1,13.893-4.137c2.313,0,4.625,0,7.127,0V419.88a39.968,39.968,0,0,0,31.288-.093v5.9c2.348,0,4.616-.168,6.849.042a41.963,41.963,0,0,1,8.6,1.353,23.184,23.184,0,0,1,15.752,21.588c0,.273-.029.547-.05.921h-19.13a37.05,37.05,0,0,0-1.722-5.419,11.351,11.351,0,0,0-10.811-6.72c-10.108-.04-20.217-.078-30.324.013-6.574.059-11.291,4.518-12.034,11.113-.074.661-.167,1.133-1.028,1.128-6.073-.037-12.147-.036-18.22-.051a2.194,2.194,0,0,1-.457-.168" transform="translate(-74.903 -331.967)" fill="#cc5e12"/>
        <path id="Trazado_1651" data-name="Trazado 1651" d="M234.185,224.769a31.087,31.087,0,0,1-30.39,24.283c-14.692.049-28.4-11.185-30.48-24.844.29-.16.6-.346.924-.506q14.006-6.927,28.027-13.823a2.286,2.286,0,0,1,1.749-.113q14.9,7.307,29.754,14.718a4.171,4.171,0,0,1,.416.285M203.812,240.5a14.409,14.409,0,0,0,10.382-4.2,3.726,3.726,0,0,0,.377-5.348,3.78,3.78,0,0,0-5.45-.467c-3.911,3.03-6.78,3.038-10.618.028a3.856,3.856,0,0,0-5.114,5.772,14.443,14.443,0,0,0,10.422,4.217" transform="translate(-137.057 -165.782)" fill="#cc5e12"/>
        <path id="Trazado_1652" data-name="Trazado 1652" d="M67.931,600.162q30.521,0,61.041,0c.6,0,1.207-.009,1.806.043a3.86,3.86,0,0,1,.506,7.608,8.34,8.34,0,0,1-1.792.159q-61.6.011-123.2.016c-1.943,0-3.612-.431-4.5-2.344a3.828,3.828,0,0,1,3.143-5.435c.6-.059,1.2-.047,1.805-.047q30.591,0,61.181,0" transform="translate(-1.137 -474.608)" fill="#cc5e12"/>
        <path id="Trazado_1653" data-name="Trazado 1653" d="M359.115,104.152c2.874-1.421,5.6-2.9,8.433-4.144,7.679-3.38,12.277-9.114,13.646-17.41a2.676,2.676,0,0,1,.2-.478,18.657,18.657,0,0,1,5.412,5.081,22.715,22.715,0,0,1-1.306,28.9c-.462.513-.8.865-1.6.464-8.024-4.015-16.071-7.984-24.109-11.97a7.82,7.82,0,0,1-.681-.444" transform="translate(-283.988 -64.94)" fill="#cc5e12"/>
        <path id="Trazado_1654" data-name="Trazado 1654" d="M10.947,134.751a13.949,13.949,0,0,1-1.571,2.636c-2.159,2.3-2.15,4.011.214,6.1,5.373,4.74,5.414,12.75.087,17.168-1.968,1.632-4.175,1.618-5.713-.037-1.578-1.7-1.385-3.94.5-5.775,1.947-1.9,1.823-3.857-.368-5.784-5.546-4.877-5.437-13.249.224-17.527a3.847,3.847,0,0,1,4.3-.444,4.44,4.44,0,0,1,2.331,3.665" transform="translate(0 -103.298)" fill="#cc5e12"/>
        <path id="Trazado_1655" data-name="Trazado 1655" d="M573.055,151.2a10.75,10.75,0,0,1,3.982-7.6c2.366-2.029,2.441-3.864.231-6.077a3.85,3.85,0,0,1-.336-5.488,3.951,3.951,0,0,1,5.611-.259,11.221,11.221,0,0,1,.33,17.1c-.139.123-.285.237-.424.36-2.128,1.879-2.193,3.836-.121,5.8a3.9,3.9,0,0,1,1.272,4.019,3.346,3.346,0,0,1-2.974,2.746,5.6,5.6,0,0,1-3.329-.879c-2.782-1.95-4.331-5.467-4.242-9.715" transform="translate(-453.169 -103.383)" fill="#cc5e12"/>
        <path id="Trazado_1656" data-name="Trazado 1656" d="M69.222,311.476a4.483,4.483,0,0,1-3.684-2.679,3.851,3.851,0,0,1,.9-4.23,8.212,8.212,0,0,0,1.456-1.822c.691-1.472.167-2.908-1.41-4.254a11,11,0,0,1-4.064-9.856,10.752,10.752,0,0,1,4.343-7.775,3.884,3.884,0,0,1,5.094,5.851c-2.408,2.5-2.334,4.064.3,6.357a11.2,11.2,0,0,1-.287,17.08,13.852,13.852,0,0,1-2.643,1.327" transform="translate(-49.314 -221.436)" fill="#cc5e12"/>
        <path id="Trazado_1657" data-name="Trazado 1657" d="M510.7,300.68a10.747,10.747,0,0,1,3.9-7.632c2.533-2.244,2.592-3.832.237-6.249a3.9,3.9,0,0,1,5.132-5.858,11.239,11.239,0,0,1,.826,17.07c-.369.35-.776.661-1.139,1.017a3.416,3.416,0,0,0-.058,5.054,7.417,7.417,0,0,1,1.656,2.474,3.651,3.651,0,0,1-1.6,4.107,3.951,3.951,0,0,1-4.547-.183c-2.693-1.966-4.391-5.386-4.407-9.8" transform="translate(-403.858 -221.488)" fill="#cc5e12"/>
        <path id="Trazado_1658" data-name="Trazado 1658" d="M226.578,545.905a3.951,3.951,0,0,1,3.178-4.236A8.275,8.275,0,0,1,231,541.6q14.941-.006,29.883,0c2.724,0,4.273,1.485,4.489,4.307Z" transform="translate(-179.169 -428.289)" fill="#cc5e12"/>
      </g>
    </g>
  </g>
</svg>
