<svg id="Grupo_330" data-name="Grupo 330" xmlns="http://www.w3.org/2000/svg" width="150.089" height="82.606" viewBox="0 0 150.089 82.606">
  <path id="Trazado_910" data-name="Trazado 910" d="M1829.983,877.748c0-10.454-.036-20.907.018-31.36a9.352,9.352,0,0,1,5.956-9.012,9.552,9.552,0,0,1,10.834,1.839,9.713,9.713,0,0,1,3.233,7.489c.027,20.7.057,41.4-.013,62.105a10.017,10.017,0,1,1-20.026-.111c-.037-10.317-.01-20.633-.01-30.95Z" transform="translate(-1808.666 -836.446)" fill="#cc5e12"/>
  <path id="Trazado_911" data-name="Trazado 911" d="M1944.762,877.759c0,10.453.036,20.907-.017,31.361a9.336,9.336,0,0,1-5.96,9.009,9.573,9.573,0,0,1-10.834-1.84,9.725,9.725,0,0,1-3.23-7.491c-.026-20.7-.058-41.4.013-62.106a10.017,10.017,0,1,1,20.027.117c.036,10.316.01,20.633.01,30.95Z" transform="translate(-1815.997 -836.446)" fill="#cc5e12"/>
  <path id="Trazado_912" data-name="Trazado 912" d="M1857.19,890.315V870.429h57.276v19.886Z" transform="translate(-1810.773 -839.076)" fill="#cc5e12"/>
  <path id="Trazado_913" data-name="Trazado 913" d="M1823.154,904.424c-5.041-.3-7.567-3.5-9.067-11.3-4.654.983-7.191-1.071-7.2-5.859q-.016-8.086,0-16.171c.006-4.964,2.386-6.954,7.223-6.057,1.306-7.6,4.039-11.041,9.046-11.26Z" transform="translate(-1806.879 -837.787)" fill="#cc5e12"/>
  <path id="Trazado_914" data-name="Trazado 914" d="M1960.954,865.128c4.445-1.115,7.2,1.023,7.224,5.513q.038,8.393,0,16.785c-.015,4.632-2.684,6.728-7.338,5.63-.118,3.49-.7,6.881-3.657,9.131a41.757,41.757,0,0,1-5.232,2.894V853.8C1956.879,853.9,1959.835,857.6,1960.954,865.128Z" transform="translate(-1818.106 -837.789)" fill="#cc5e12"/>
</svg>
