<svg id="Grupo_333" data-name="Grupo 333" xmlns="http://www.w3.org/2000/svg" width="150.689" height="148.189" viewBox="0 0 150.689 148.189">
  <path id="Trazado_918" data-name="Trazado 918" d="M1489.908,389.792c-8.228.408-13.349-5.021-14.508-10.336a13.044,13.044,0,0,1,23.257-10.617c3.228,4.54,4.163,10.931-1.406,17.264,1.346-.662,2.691-1.328,4.041-1.983.524-.254,1.051-.508,1.594-.72a3.425,3.425,0,0,1,4.5,1.5,3.246,3.246,0,0,1-1.665,4.388c-3.385,1.772-6.821,3.45-10.41,5.255,1.7,6,3.4,11.97,5.119,18.026,2.4,0,4.741-.015,7.08,0,2.012.017,3.352.985,3.437,2.981.147,3.482.118,6.984-.077,10.465-.109,1.942-1.38,2.814-3.351,2.851-.267.005-.533,0-.8,0H1364.8c-3.269,0-4.431-1.118-4.449-4.374-.015-2.656.027-5.313.063-7.969.037-2.762,1.251-3.958,4-3.958q39.388-.005,78.777-.034a6.313,6.313,0,0,0,2.71-.647q21.425-10.681,42.809-21.44C1489.121,390.246,1489.51,390.012,1489.908,389.792Zm-.664,7.809-29.262,14.68.1.226h33.449Z" transform="translate(-1360.349 -300.467)" fill="#cc5e12"/>
  <path id="Trazado_919" data-name="Trazado 919" d="M1414.828,421.239q-17.1,0-34.2,0c-2.4,0-3.479-1.247-3.206-3.741a6.614,6.614,0,0,1,6.885-6.121c14.174,0,28.349.016,42.523-.035a7.822,7.822,0,0,0,3.323-.768q17.351-8.567,34.641-17.256c4.527-2.27,8.934-2.322,13.009.851,3.581,2.788,4.79,6.63,4.087,11.068a1.662,1.662,0,0,1-.855.974q-14.583,7.356-29.205,14.636a5.027,5.027,0,0,1-2.162.361q-17.42.031-34.839.015Z" transform="translate(-1367.532 -312.384)" fill="#cc5e12"/>
  <path id="Trazado_920" data-name="Trazado 920" d="M1452.055,254.54l22.055,49.746h-43.3Z" transform="translate(-1390.064 -254.54)" fill="#cc5e12"/>
  <path id="Trazado_921" data-name="Trazado 921" d="M1502.559,305.633l-20.885-46.975c4.161,2.99,8.04,5.765,11.907,8.558q17.668,12.758,35.327,25.526c1.892,1.368,3.771,2.754,5.649,4.14a3.044,3.044,0,0,1,1.272,3.62,3.2,3.2,0,0,1-3.04,2.359q-12.539,1.1-25.072,2.262C1506.032,305.276,1504.351,305.455,1502.559,305.633Z" transform="translate(-1411.517 -256.277)" fill="#cc5e12"/>
  <path id="Trazado_922" data-name="Trazado 922" d="M1413.755,260.589c-1.745,4.121-3.479,8.247-5.239,12.362q-6.829,15.965-13.664,31.928a1.824,1.824,0,0,1-2.293,1.357c-6.495-.7-13.016-1.154-19.524-1.729-3.176-.28-6.346-.618-9.515-.957a3.065,3.065,0,0,1-2.806-2.244,3.005,3.005,0,0,1,1.064-3.561c4.113-3.01,8.222-6.025,12.354-9.009q19.36-13.979,38.737-27.936c.211-.152.437-.28.656-.419Z" transform="translate(-1360.424 -257.003)" fill="#cc5e12"/>
  <path id="Trazado_923" data-name="Trazado 923" d="M1377.367,488.079h19.671c0,3.405.12,6.734-.047,10.049a2.817,2.817,0,0,1-3,2.878c-3.432.157-6.875.107-10.312.128a19.081,19.081,0,0,1-3.159-.084,3.272,3.272,0,0,1-3.134-3.524C1377.315,494.444,1377.367,491.361,1377.367,488.079Z" transform="translate(-1367.518 -353.034)" fill="#cc5e12"/>
  <path id="Trazado_924" data-name="Trazado 924" d="M1569.887,488.112h19.7c0,3.342.135,6.672-.051,9.983-.109,1.909-1.548,3.045-3.593,3.083-4.074.076-8.154.092-12.226-.033-2.537-.079-3.7-1.177-3.795-3.554C1569.788,494.47,1569.887,491.34,1569.887,488.112Z" transform="translate(-1448.706 -353.048)" fill="#cc5e12"/>
  <path id="Trazado_925" data-name="Trazado 925" d="M1468.836,380.816c-2-1.629-3.864-3.11-5.67-4.661a1.981,1.981,0,0,1-.641-1.319c-.036-9.365-.026-18.73-.026-28.224h6.337Z" transform="translate(-1403.43 -293.371)" fill="#cc5e12"/>
  <path id="Trazado_926" data-name="Trazado 926" d="M1416.638,412.55c3.729-2.61,7.382-5.338,11.207-7.8,4.294-2.762,8.823-2.31,12.776.97,2.237,1.855,4.467,3.717,6.731,5.6a9.039,9.039,0,0,1-5.623,1.609c-7.822-.091-15.645-.037-23.469-.037h-1.538Z" transform="translate(-1384.088 -317.127)" fill="#cc5e12"/>
</svg>
